<svg xmlns="http://www.w3.org/2000/svg" viewBox="0 0 490.35 399.56"><defs><style>.cls-1{fill:#fff;}.cls-1,.cls-4{opacity:0.6;}.cls-2{fill:#838bc5;opacity:0.5;}.cls-3{fill:#ba9bc9;opacity:0.9;}.cls-4{fill:#65c8d0;}</style></defs><g id="Layer_2" data-name="Layer 2"><g id="Layer_1-2" data-name="Layer 1"><path class="cls-1" d="M489.83,180.5C462.59,425.57,163.52,432,136.15,358.7,74.93,331.16,20.38,276.79,1.61,184.06c-10.31-50.89,30.28-58.9,87.62-44.34-9.07-24.34-12.46-42-12.46-42S187.93,181.05,242,87.38,375.82-25.88,429.35,34.57c-32,18.18-24.67,61.24-24.21,106.51C457.69,125,495.27,131.56,489.83,180.5Z"/><path class="cls-2" d="M489.83,180.5c16.88-151.91-380.73,104.59-353.74,178S462.57,425.75,489.83,180.5Z"/><path class="cls-3" d="M429.34,34.57c-70.25,39.94,49.12,200-131,239.64S76.77,97.68,76.77,97.68,187.93,181.05,242,87.38,375.82-25.88,429.34,34.57Z"/><path class="cls-4" d="M1.6,184.06C-28.73,34.25,382,256,362.43,331.41S50.57,425.91,1.6,184.06Z"/></g></g></svg>