<svg xmlns="http://www.w3.org/2000/svg" viewBox="0 0 913.73 276.17"><g id="Layer_2" data-name="Layer 2"><g id="Layer_1-2" data-name="Layer 1"><path d="M802.91,156.5c-32.66-.46-65.31-1-98-1.35-55.39-.54-110.77-1.29-166.16-1.17-20.1,0-40.39,1-60.24,3.92-25.37,3.71-47.19,15.28-61.83,37.37-4.36,6.59-7.31,14.13-10.91,21.22-5.73,11.26-11.27,22.62-17.24,33.74-6.13,11.42-16.46,16.2-28.92,16.4-35.82.59-71.65.62-107.46,1.58-9.85.26-19.61,3.16-29.44,4.65-62,9.38-119.82-.43-170.92-38.6-24.27-18.12-41.74-41.62-48.76-71.63C-5.28,126.91,3.73,95,26.34,66.81,50,37.31,81.49,19.6,117.27,9.17,150.32-.47,184-2.06,218.14,2.31c14.13,1.8,28.61.88,42.94,1.06q48.48.6,97,1.06c14,.13,24.91,5.35,31.41,18.22,5.62,11.11,12.79,21.76,16.43,33.5,11.17,35.92,36.39,54.48,71.78,61.39,27.1,5.3,54.6,6.06,82.11,6q159.48-.11,319-.31a226.64,226.64,0,0,1,24.44,1.24c7.51.8,10.5,4.58,10.55,12a91.1,91.1,0,0,1-.52,11c-.86,7.43-3.49,10-10.86,10.25-10.82.35-21.65.67-32.47.5-22.33-.34-44.65-1-67-1.53ZM266.49,32.11a9.86,9.86,0,0,0-1.5-1.27c-1.5-.72-3-1.43-4.55-2C219.77,12.54,178,10,135.47,19.46c-33.73,7.51-64,22.07-87.56,47.93C20,98.07,10.79,133.47,25.8,173.16,37,202.9,58.74,223.76,86.31,238.41c45.72,24.29,94.23,29.38,144.43,18.32,34.6-7.63,65.33-23,89.08-50,19.59-22.27,30.19-48,26.75-78.33-1-9-1.53-9.26-10.53-8.09-15.34,2-30.72,3.66-46.08,5.5q-40.4,4.81-80.77,9.64c-8.5,1-17,1.92-26.9,3l7.55-10.82c-3.88-1-7.34-1.51-10.57-2.7-4.06-1.5-6.67-4.63-6.65-9.07,0-4.7,3.06-7.62,7.18-9.28a21.87,21.87,0,0,1,5.83-1.17c6.65-.68,11.84,2.39,16.54,7.54ZM365,106.46c-11.15-42.31-39.69-67.53-76.29-85.69a16.13,16.13,0,0,0-2.07,1.82c-10.93,13.62-21.92,27.2-32.67,41a15.91,15.91,0,0,0-3.09,7.67c-.84,7.15-4.67,11.31-11.18,13.92a16,16,0,0,0-6.79,5.32c-8.15,11.57-16,23.34-26.9,32.65a10.79,10.79,0,0,0-1.4,2.5Z"/><path d="M512.79,26.85h15.84c-.93,22.52-1.86,44.88-2.79,67.46H511c.45-9.78.89-19.33,1.35-29.26H478V94.22H462.17c1-22.44,2-44.66,3.08-67.26H479.4v27.3c10.26,0,20.54.1,30.82-.17.89,0,2.41-2.44,2.45-3.78C512.91,42.66,512.79,35,512.79,26.85Z"/><path d="M654.1,63.54l16.9,31c-5.1,0-9.4.15-13.67-.1A4.61,4.61,0,0,1,654,92.35c-5.26-11.28-10.32-22.65-15.73-34.64a27.9,27.9,0,0,0,5.36-.06c3.37-.68,6.93-1.18,9.93-2.71,4.07-2.07,5.93-7.53,4.84-11.63-1.23-4.61-4.78-6.32-9-6.59-4.77-.31-9.58-.07-15-.07-.63,19.27-1.25,38.18-1.88,57.48H618.2c1-22.28,2-44.49,3.08-67.7,8.81,0,17.89,0,27,0,2.66,0,5.33.08,8,.31,9.21.79,15.64,6.24,16.49,13.88,1.11,10-3.49,17.79-12.4,20.88C658.48,62.15,656.63,62.72,654.1,63.54Z"/><path d="M565.47,54.75h29.89c-.27,3.58-.5,6.69-.79,10.48-8.24,0-16.34.16-24.43-.07-4-.12-5.74,1.08-5.46,5.3.3,4.45.07,8.93.07,13.78h33.48c-.21,3.46-.4,6.55-.61,10H549c1.05-22.35,2.08-44.55,3.14-67.19H600.4V37H566.69C566.29,42.83,565.91,48.37,565.47,54.75Z"/><path d="M798.44,55.58c-.35,3.91-.62,7-.94,10.69H767.94v19h33.32c-.23,3.32-.44,6.51-.67,10H752c1-22.37,2.07-44.69,3.11-67.34h48.18V38.1H769.6c-.35,5.87-.69,11.42-1.05,17.48Z"/><path d="M840.56,95.52c-7.88-22.61-15.63-44.87-23.65-67.9,4.8,0,9.22-.26,13.56.17,1.13.11,2.51,2.21,3,3.65,5.31,16.46,10.46,33,15.67,49.46a22.47,22.47,0,0,0,1.15,2.32c2.93-6.25,5.65-12,8.35-17.87,5.39-11.62,10.71-23.27,16.22-34.83.58-1.22,2.15-2.66,3.36-2.75,4.25-.34,8.54-.13,13.55-.13-1.84,3.58-3.36,6.48-4.83,9.41C877.68,55.5,868.52,74,859.13,92.36a6.78,6.78,0,0,1-4.73,3C849.79,95.8,845.12,95.52,840.56,95.52Z"/><path d="M689.93,94.22c1.15-22.58,2.29-44.8,3.44-67.33h14.89c-1,19-1.91,37.68-2.89,56.88h31.12V94.22Z"/><path d="M631.9,228.91c-.21,2.43-.32,3.75-.45,5.31h-9.39L624.32,185h10.2c-.27,4.18-.53,8.1-.81,12.47,5.79,0,11.22-.46,16.53.13,6.24.69,9.94,4.85,11.67,10.83,3.55,12.21-2.77,24.5-13.88,26.72C641.82,236.4,636.6,234.45,631.9,228.91Zm.77-15.67h-.11c.1,2.32,0,4.67.34,7,.7,5,3.84,8.16,8.32,8.5,5,.39,8.45-2.08,9.79-6.71a25.56,25.56,0,0,0,.94-9.75c-.74-6.51-5.31-9.29-13.23-8.75-5.77.4-5.89.59-6.05,9.24Z"/><path d="M532.32,185c1.44-.09,2.58-.19,3.72-.21,2,0,4,0,6.42,0-.23,4.33-.45,8.37-.69,12.78,11.64-.87,23.82-3.46,28.27,11.54,2.59,8.75-1.07,19.52-7.66,23.69-7,4.45-14,3.53-22.44-3.09-.19,1.57-.37,3-.57,4.62h-9.32C530.8,217.93,531.55,201.73,532.32,185Zm8.35,28.13h-.14a73.94,73.94,0,0,0,.43,7.46c.72,4.58,3.35,7.59,8.12,8.12s8.32-1.7,9.69-6.1a26.58,26.58,0,0,0,1.09-10.7c-.75-6.35-5.55-8.73-13.5-8.46-7,.24-5.41,5.14-5.69,9.18C540.66,212.77,540.67,212.94,540.67,213.1Z"/><path d="M741.92,206a49,49,0,0,0,7.4-.55c4.1-.92,7.07-3.25,6.61-8s-4.08-5-7.77-5c-2.65,0-5.29,0-8.72,0-.56,14-1.1,27.71-1.66,41.7h-10c.72-16.4,1.43-32.61,2.17-49.3,8.93,0,17.72-.39,26.46.15,5.59.34,9.41,4.86,10.18,10.15,1,6.72-2.35,13.44-8.39,16.11a27.6,27.6,0,0,1-8.15,2.11C743.81,214.07,742.41,212.66,741.92,206Z"/><path d="M870,197.63c7.65,0,15.38-.54,23,.17,5.91.56,8,3.72,7.74,9.6-.31,8.79-.87,17.58-1.34,26.72H889.6c.28-5.86.55-11.6.86-18.14-4.87,1.59-9.49,2.7-13.7,4.68-1.58.75-3.32,3.81-3,5.32s3.09,3,5.05,3.62c1.77.61,3.92.13,5.89.13-.35,4.62-.58,5.43-4.7,5.48s-8.54-.21-12-2c-6.82-3.42-5.77-13.76,1.75-17.22,4.61-2.12,9.93-2.69,14.67-4.58,2.3-.92,5.6-3.24,5.66-5,.11-3.78-3.69-4.2-6.75-3.92-4.6.42-9.17,1.23-14.4,2C869.22,202.77,869.51,200.93,870,197.63Z"/><path d="M581.24,204.83c-.82-5.35,1.87-7,5.88-7.07,6.08-.13,12.24-.62,18.25.09,5.54.65,7.6,3.8,7.4,9.41-.32,8.93-.89,17.85-1.37,27h-9.79c.26-6,.53-11.9.81-18.27-4.71,1.51-9.12,2.49-13.07,4.41-1.78.86-3.87,3.88-3.54,5.45s3.3,3,5.39,3.77c1.76.62,3.9.13,5.87.13.34,3.95-2.11,5.68-5.37,5.57-3.9-.14-8.13-.37-11.57-2-5.76-2.68-6.3-11.69-.87-15.48,3.55-2.48,8.08-3.6,12.25-5.12,2.32-.85,5-.87,7.13-2,1.6-.9,2.52-3,3.74-4.59-1.63-1.19-3.23-3.34-4.9-3.39-4.09-.13-8.22.67-12.32,1.18A37,37,0,0,0,581.24,204.83Z"/><path d="M523,215.48H496.47c-2,11.38,3.17,14.32,22.81,13.23,1,3.56.69,6.14-4,6.11-4.95,0-10,.55-14.82-.1-8.91-1.18-13.9-6.66-14.65-15-.93-10.34,3.33-19.18,11.73-21.28a39.46,39.46,0,0,1,17-.14C521.46,199.74,524.67,207.13,523,215.48Zm-9.32-3.92c0-6.3-2.21-8.91-7.22-9.07-5.58-.18-9.29,3.3-9.48,9.07Z"/><path d="M838.35,227.8h18.94c-.19,2.24-.35,4.15-.53,6.36h-29.5c-1-4.32-.29-7.8,3.06-11.13,5.62-5.59,10.77-11.65,16.7-18.16H829.75v-6.82h28.56c.89,4.7.25,8.53-3.48,12.1C849.37,215.38,844.46,221.19,838.35,227.8Z"/><path d="M802.35,227.8h19.09c-.27,2.43-.5,4.36-.73,6.41H791.3c-1.24-4.65-.1-8.09,3.21-11.39,5.53-5.49,10.6-11.45,16.51-17.93H793.38c.14-2.66.25-4.71.37-6.94h28.51c.77,4.38.66,8.15-2.94,11.66C813.75,215,808.68,221,802.35,227.8Z"/><path d="M481.73,184.75l-20,23.39,20.42,26.34c-4.41,0-7.84.18-11.23-.1a5.54,5.54,0,0,1-3.54-2.06c-5.75-7.92-11.33-16-17.13-24.21,5.88-7.28,11.64-14.75,17.86-21.81,1.17-1.34,4.13-1.24,6.3-1.5A69.72,69.72,0,0,1,481.73,184.75Z"/><path d="M439.06,185h11c-.77,16.46-1.52,32.66-2.29,49.17h-11C437.52,217.78,438.28,201.58,439.06,185Z"/><path d="M682.44,216.63a11,11,0,1,1,10.71,10.84A10.89,10.89,0,0,1,682.44,216.63Z"/><path d="M772,234.08c.59-12.11,1.17-23.86,1.76-36h9.39v36Z"/><path d="M774.14,183.92h10.25c-.13,2.15-.24,4.15-.36,6.34h-9.89Z"/><path d="M175.79,195.91c-9.48.52-17.62-3.26-24.6-9.63-7.84-7.15-7.72-17.2-.09-24.53,13.67-13.14,34.72-11.64,46.71-2.38,10.55,8.15,11,19.5,1,28.4A31.23,31.23,0,0,1,175.79,195.91Zm16.79-23.78-4.4,4.54c1.89,1.23,3.67,3.07,5.72,3.46,1.2.23,2.84-1.87,4.28-2.91Zm-5.21,12-4.85,4.14c1.77,1.29,3.4,3.21,5.37,3.65,1.28.29,3-1.58,4.59-2.48C191,187.81,189.45,186.24,187.37,184.08Zm-14.11-17-4.46,4.45c1.9,1.2,3.69,3,5.74,3.36,1.23.23,2.87-1.77,4.32-2.77Zm-10.61,16,4.68-4.11c-1.88-1.24-3.64-3.08-5.68-3.49-1.18-.24-2.83,1.81-4.27,2.84Z"/><path d="M84.52,70.23c8.41-.15,16.19,1.86,22.91,7.07,9.76,7.57,9.95,18.86.58,26.83-12.15,10.31-35.36,10.16-47.41-.32-8.35-7.27-8.57-17.66-.54-25.25C65.73,73.21,74.47,70.23,84.52,70.23Zm7,29.28,4.5-4.42c-1.53-1.17-3-3.14-4.6-3.27-1.41-.1-3,1.88-4.47,2.93Zm-23.29.64,4.47-4.5c-1.56-1.11-3.07-3-4.7-3.1-1.38-.1-2.91,1.83-4.37,2.87Zm28.39-14,4.9-4.62c-1.44-1.08-2.91-3.05-4.31-3-1.61.06-3.16,1.9-4.73,3Z"/><path d="M186.89,62.78c-14.38-.07-24.74-8.19-26.52-20.5-1-6.72,1.77-11.63,6.77-15.58,10.44-8.25,28.58-8.3,39.24-.21,10.05,7.63,10.25,21.62.41,29.6A32.41,32.41,0,0,1,186.89,62.78ZM172.93,41l4.73-4.78c-1.49-1.06-3-3-4.45-2.93-1.61.09-3.1,2-4.65,3.15ZM191,43.25l4.63-5c-1.53-1-3-2.75-4.59-2.77s-3,1.76-4.5,2.75Zm2.65,13.23,4.58-4.7c-1.46-1.07-3-3.08-4.36-3-1.65.12-3.16,2-4.73,3.18Z"/><path d="M279.3,215.48c-7.15-.42-13.76-2.28-19.07-7.43-8.21-7.94-8.08-19.6.29-27.36,10.13-9.38,27.79-9.33,37.88.13,8.26,7.74,8.3,19.58.05,27.36C293.09,213.24,286.48,215.14,279.3,215.48Zm-10.22-16.17-4.3,4.4c1.27,1,2.71,2.95,3.75,2.76,1.56-.29,2.85-2.09,4.25-3.24Zm21.29,1.35c-2.61-1.6-4.12-3.24-5.06-2.95-1.73.52-3.13,2.16-4.66,3.34,1.19.89,2.42,2.55,3.56,2.49C285.86,203.45,287.44,202.12,290.37,200.66Zm-3.61-4.74,2.58-1.25,3.63-3.84c-1.07-1-2.5-3-3.16-2.81a8.34,8.34,0,0,0-4.55,3.45C284.76,192.42,286.19,194.4,286.76,195.92Zm-17.9-9-2.38,1.16-3.73,3.95c1.12,1,2.54,2.89,3.3,2.66a7.93,7.93,0,0,0,4.49-3.38C271,190.42,269.49,188.45,268.86,187Z"/><path d="M123.7,140.92a16.92,16.92,0,0,1-3-.26c-7.39-1.6-12.67-7.69-11.55-13.24,1.28-6.35,9.77-11.68,17.08-10.72.16,0,.32.08.48.1,8.94,1.45,14.31,6.5,13.71,12.91C139.8,136.47,133.54,140.93,123.7,140.92Z"/><path d="M108.58,62.91C100.44,62.85,94,58.2,93.43,52.05c-.66-7.79,7.76-14.45,16.8-13.3.17,0,.33.08.49.11,8.77,1.36,14.69,6.79,14,12.87C124,58.08,117,63,108.58,62.91Z"/><path d="M105.24,218.49c-3.4-1.11-6.65-1.81-9.57-3.22-4-1.91-6.48-5.11-6.44-9.81s2.73-7.72,6.62-9.73c6.36-3.28,12.79-3.2,18.94.5,7.67,4.62,7.8,13.94.13,18.54C112,216.51,108.55,217.25,105.24,218.49Z"/><path d="M302.71,126.21a33.12,33.12,0,0,1,4.47.33c6.09,1.27,10.68,6.16,10.89,11.45.2,5.06-3.11,9.21-9.84,10.8a27.83,27.83,0,0,1-11.7.3c-6.53-1.37-10.32-6.25-10-11.34.33-5.42,5.9-10.67,12.19-11.39a35.56,35.56,0,0,1,4,0Z"/><path d="M220,243.89c-.16,0-.33,0-.49,0-7.37-.1-14.06-5.3-13.9-10.81.16-5.82,8-11.23,15.24-10.54a12.47,12.47,0,0,1,1.46.27c7.19,1.43,11.95,5.88,11.65,10.87C233.62,239.09,227.16,243.82,220,243.89Z"/><path d="M70.87,196.2c-5.55-.16-10.2-4.09-10-8.43s4.56-7.16,10.88-7c5.09.1,9.74,3.66,9.73,7.45S75.81,196.35,70.87,196.2Z"/><path d="M203,90.64c-5.59.08-10.11-3.23-10.07-7.36,0-3.94,4.45-7.36,9.63-7.47s10.1,3.49,10.08,7.52S208.38,90.56,203,90.64Z"/><path d="M242.64,32.81c0,3.87-4.76,7.51-9.64,7.45s-9.22-3.71-9.08-7.88c.14-4.36,3.69-6.79,9.75-6.68C239.14,25.8,242.69,28.61,242.64,32.81Z"/><path d="M41.23,118.56c-3.08-.26-6.29-1.53-7.06-5.59-.56-3,3.75-6.31,7.62-6.26,3.71,0,7.49,3,7.54,5.9S45.74,118.47,41.23,118.56Z"/><path d="M121.21,158.65c3.74.37,6.29,2.06,6.44,6.1a6.54,6.54,0,0,1-6.53,6.68,6.1,6.1,0,0,1-6.3-6.68C115,160.76,117.34,158.88,121.21,158.65Z"/><path d="M226.63,203.59c-4.67,0-7.51-2.85-7.13-6.64s2.64-6,6.52-6.11a6.57,6.57,0,0,1,6.4,6.8C232.06,201.51,229.71,203.45,226.63,203.59Z"/><path d="M179.1,215.78c.51-4.1,3.9-6.68,7.57-5.95,3.92.77,5.5,3.4,5.09,7.25a5.94,5.94,0,0,1-7,5.32C180.9,221.69,179.24,219.08,179.1,215.78Z"/><path d="M309.23,167.58c-5-.05-8.14-.83-8.6-5.07-.35-3.23,3-5.77,7.19-5.77,4,0,7.78,2.8,7.32,5.75A5.58,5.58,0,0,1,309.23,167.58Z"/><path d="M166.47,231.64c-3.87-12.91-17.3-17.79-31.77-13.44,5.93-6.16,18-6.37,26.88-.48C166.92,221.25,168.83,226.21,166.47,231.64Z"/><path d="M139.26,44.73c4.66,1,8.13,2,8.18,6.1s-3.52,5.31-7,5.55-8-3.23-7-5.48C134.63,48.48,137.28,46.75,139.26,44.73Z"/><path d="M83.61,146.69c-5.58-4.33-10.51-8.14-15.44-11.95l1-1.42,20.66,12.76-14.9,7.55-1-1.4Z"/><path d="M80.12,137.85c3.27-7.13,2.14-9.19-6.63-14.73l.58-1.14c3.71,2,7.71,3.55,11,6.07,1.36,1,2.06,4.43,1.43,6.16C86,135.67,83.07,136.28,80.12,137.85Z"/><path d="M173.79,81.69c-.83.86-1.54,2.28-2.51,2.48-4.71,1-9.49,1.62-14.24,2.43a68.16,68.16,0,0,1-8.53,1.14c1.61-1,3.11-2.46,4.84-2.84,4.71-1,9.53-1.5,14.27-2.34A37.66,37.66,0,0,0,172.48,81Z"/><path d="M163.89,90.22c-.48,1.74-.4,4.24-1.54,5.1-4.44,3.3-9.51,4.21-15.86,1.92,6.61-.88,13.35.3,15.62-7.4Z"/><path d="M157.76,242.54c-4.7.27-4.7.27-5.45-9.64Z"/><path d="M64.6,147.07l-7.93,2.86,3.81-8.55Z"/><path d="M316.73,64.37c9.12.09,16.87,1.73,23.64,6.51,10,7,10,17.19.57,24.9-10.21,8.38-21.24,12-34.26,8-7.37-2.26-12.74-7.18-17-13.21-4-5.65-2.87-12.45,2.66-17.56C299.44,66.46,308.3,64.61,316.73,64.37ZM324.91,78c-1.63,2.92-3.35,4.59-3.13,6s2.34,2.49,3.62,3.71c1.16-1.36,3.15-2.67,3.24-4.1S326.84,80.73,324.91,78Zm-26.65,5.36c-1.81,2.91-3.58,4.5-3.4,5.81s2.25,2.55,3.48,3.81c1.22-1.28,3.24-2.47,3.41-3.88S300.11,86.24,298.26,83.37Zm22.82-7.44c-2.77-1.69-4.44-3.51-5.69-3.26s-3.39,2.48-3.34,3.77,2.29,3.28,3.69,3.39S318.49,77.93,321.08,75.93Zm-7.63,28.82c1.94-2.66,3.88-4.15,3.77-5.47s-2.16-2.65-3.36-4c-1.33,1.2-3.48,2.27-3.72,3.66S311.72,101.93,313.45,104.75Z"/><path d="M253.67,102.85c-5.74-.06-10.94-4.34-10.82-8.9s5.43-8.51,11.28-8.31c6.05.22,11.1,4.29,10.89,8.77S259.22,102.91,253.67,102.85Z"/><path d="M276.16,107.68c4.21-4,5.54-3.85,9.75.47C281,112.69,279.91,112.67,276.16,107.68Z"/></g></g></svg>