<svg xmlns="http://www.w3.org/2000/svg" viewBox="0 0 914.03 276.94"><defs><style>.cls-1{fill:#fff;}</style></defs><g id="Layer_2" data-name="Layer 2"><g id="Layer_1-2" data-name="Layer 1"><path d="M880.09,158.85q-30.47-.51-60.93-1c-13.81-.26-27.61-.7-41.42-.93-24.48-.4-49-.7-73.42-1.06-1.28,0-2.62.34-3.66-1-.39-.5-1.47-.54-2.26-.66a13.33,13.33,0,0,0-2,0c-54.66,0-109.32,0-164,.13-10.12,0-20.24,1-30.35,1.59-5.14.3-10.27.62-15.4,1.06-10.33.9-20.16,3.83-29.74,7.64-3.39,1.35-6.66,3-10,4.39a52.66,52.66,0,0,0-18.45,13.34c-3.06,3.29-6,6.71-9,10-5.23,5.78-8.21,12.84-11.32,19.82-3,6.82-5.73,13.8-9.09,20.46s-7.46,13.33-11.31,19.92c-4.18,7.17-10.68,11.25-18.52,13.33a33.39,33.39,0,0,1-7.35,1.15c-14,.48-27.95,1-41.92,1.19-23,.32-45.95.45-68.93.58a55,55,0,0,0-13.25,1.7,196.89,196.89,0,0,1-26.34,4.6,255.75,255.75,0,0,1-27.78,1.86,248.86,248.86,0,0,1-42-3.77,224.07,224.07,0,0,1-35.47-9.12c-19.45-6.69-37.59-16-53.79-28.63S22.51,208,13,189.65a111,111,0,0,1-11-31.77A102.4,102.4,0,0,1,0,136.63C.57,119,4.64,102.3,13.15,86.75A138.12,138.12,0,0,1,36.29,55.68a161.58,161.58,0,0,1,29.14-23.3A200.25,200.25,0,0,1,112.3,10.85a221.67,221.67,0,0,1,34.72-8,167.94,167.94,0,0,1,19.75-2c4.47-.1,8.93-.67,13.4-.79a183.5,183.5,0,0,1,31.77,1.87c9.91,1.47,19.89,1.14,29.86,1.22,35.31.3,70.62.51,105.92,1a133.12,133.12,0,0,1,21.28,2,26.18,26.18,0,0,1,17.94,12.36c8.65,13.64,16.52,27.61,21.43,43.14a75,75,0,0,0,21.35,33.74,85.06,85.06,0,0,0,28.07,16.73,153.28,153.28,0,0,0,34.75,8.07,384.07,384.07,0,0,0,40.22,3c16,.2,32,.75,47.93.76q138.22,0,276.47-.19c3.31,0,6.62-.57,9.93-.51q16.21.28,32.43.89a24,24,0,0,1,6.83,1.19c4.61,1.6,7.93,4.92,7.67,10.4-.22,4.8-.24,9.64-.89,14.39-.73,5.27-3.69,7.68-9.12,8-8,.48-15.94.81-23.91,1.2ZM265,34.19a10,10,0,0,0-6.26-5.73c-4-1.46-8-3-12.13-4.31a210.67,210.67,0,0,0-28.78-6.89,108.35,108.35,0,0,0-17.18-2c-16.42-.27-32.85-1-49.2,1.75a223.25,223.25,0,0,0-26.54,5.67C109.29,27.3,94.19,33.22,80.41,42c-8.19,5.2-16.93,9.8-22.93,17.86a3.74,3.74,0,0,1-1.6,1.07A13.63,13.63,0,0,0,49,67.63c-.37.71-.71,1.67-1.32,2-3.35,1.6-5.05,4.74-7.13,7.48a105.83,105.83,0,0,0-15.11,27.28,98.25,98.25,0,0,0-6.25,32.4c-.23,11.19,1.93,22,5.3,32.6,1.27,4,2.59,8.13,5.77,11.31,1.21,1.22,2.56,3.15,2.42,4.62a6.09,6.09,0,0,0,1.19,4c4.2,7,8.71,13.72,14.56,19.42,1.62,1.58,4.08,2.33,5.6,4s2,3.94,3.78,5.63A105.82,105.82,0,0,0,75,231.73a234.47,234.47,0,0,0,22.66,12.39,164.48,164.48,0,0,0,29.76,10.78,185.34,185.34,0,0,0,26.14,5.17c5.89.68,11.74,1.87,17.71,1.79,11.95-.15,23.92.84,35.84-.95,5.7-.85,11.51-1.15,17.15-2.31a184,184,0,0,0,33.62-9.84c5.3-2.2,11.06-3.64,15.16-8.19.7-.78,2.26-1.61,3-1.33,2,.71,3.2-.42,4.52-1.24,5.89-3.67,11.9-7.18,17.53-11.22a122.93,122.93,0,0,0,23.62-22A121.16,121.16,0,0,0,341,172.59a85.47,85.47,0,0,0,5.64-23,129.24,129.24,0,0,0,0-20c-.17-3.17-.45-6.58-2.29-9.42a37.37,37.37,0,0,0-4.63,0c-4.07.52-8.12,1.3-12.2,1.76-7,.8-14.12,1.44-21.19,2.16-1.25.12-2.27.52-2.21,1.79l11,3.65a48,48,0,0,1,2.44,5.49c1.12,3.64,1.26,7.14-2,10-2,1.8-4,3.41-6.7,4.11-5.45,1.4-10.76,1.84-15.91-1.08-1.27-.72-2.64-1.26-3.84-1.82-4.37-9.48-3.59-12.62,6.84-19.83a7.23,7.23,0,0,0-2-.47c-2.95.28-5.89.68-8.85,1-7.22.73-14.46,1.39-21.68,2.15-3.11.32-6.21.81-9.31,1.24-3.91.54-7.81,1.17-11.73,1.62-4.1.47-8.24.66-12.33,1.17-6.86.86-13.69,1.93-20.55,2.82-8.17,1-16.36,2-24.54,2.95a9.13,9.13,0,0,1-2.61-.65l8-11.18c-1.64,0-3,0-4.3,0a15.49,15.49,0,0,1-9.69-3.31,9.16,9.16,0,0,1-1.76-13.23,12.78,12.78,0,0,1,9.47-4.84c6.92-.41,13.35,1,19.16,5.42,3.52-4.26,6.63-8.57,10.31-12.34s6.05-8.46,9.78-12.21,6.75-8.55,10.09-12.86c3.22-4.15,6.46-8.27,9.6-12.29-1.11-3.08-5.59-4.18-3.79-8.29l6.27,5.61Zm25.42-11.85c-1.8,1.11-4,2-5.57,3.54a70.06,70.06,0,0,0-5.66,6.91Q272,41.73,264.89,50.67c-3.71,4.67-7.47,9.3-11,14.08A15,15,0,0,0,251,72.53c-.6,6.42-3.88,11-10.43,12.77a12.51,12.51,0,0,0-7.39,5.47c-3.67,5.5-7.3,11-11.24,16.34-1.82,2.44-2.92,5.48-5.69,7.22-.63.4-.87,1.37-1.36,2q-2.08,2.76-4.23,5.47c-.73.93-1.52,1.81-2.45,2.9,3,0,5.51.2,8,0,4.58-.47,9.13-1.24,13.7-1.82,3.93-.49,7.88-.83,11.81-1.32s7.81-1.17,11.74-1.63c4.1-.47,8.24-.66,12.34-1.17,6.86-.86,13.69-1.93,20.55-2.81q12.25-1.59,24.54-3c6.89-.78,13.8-1.4,20.7-2.13q4.92-.53,9.83-1.16c4.41-.57,8.81-1.19,13.21-1.78,3.38-.45,6.76-.87,10.12-1.31a9.75,9.75,0,0,0-.14-1.32c-2.73-8.79-4.77-17.89-10.94-25.2-.17-.2-.1-.59-.21-.87a26.38,26.38,0,0,0-2-4.9c-2-3.06-4.4-5.83-6.3-8.93s-5.07-5.41-7.19-8.56A31.79,31.79,0,0,0,330.22,49c-2.93-2.13-5.31-4.76-8-7.1-.13-.11-.24-.24-.38-.34C311.84,34.51,301.82,27.44,290.39,22.34Z"/><path d="M479.13,54h33.52c.5-4.49.31-8.94.41-13.36s0-8.64,0-13.13c2.73-1.16,5.4-.49,8-.59s5,0,7.74,0a75.08,75.08,0,0,1-.32,15,33.38,33.38,0,0,0-.38,3.45q-.66,22.93-1.26,45.88c0,1,0,2,0,3.5-5.22.45-10.29.16-15.85.15.05-9.91,1.8-19.6.86-29.56H479.34c-1.86,9.7-1.07,19.5-1.55,29.4H462.38c-.78-2.46-.29-5.1-.16-7.69s.59-5.27.71-7.91c.45-10.12.77-20.26,1.22-30.38.31-7.11.73-14.22,1.13-21.88h15.24C480.05,36.08,479.6,44.79,479.13,54Z"/><path d="M654.46,64,671.4,94.73H655.13l-17-36.64c1.49-.05,2.88,0,4.24-.16a52.46,52.46,0,0,0,8.34-1.13,11.09,11.09,0,0,0,7.43-13.75,6.33,6.33,0,0,0-3.74-4.35,17.09,17.09,0,0,0-5.2-1.56c-4.61-.21-9.25-.07-14-.07-.39,4.77-.9,9.19-1.08,13.63-.22,5.49-.08,11-.25,16.49-.29,9.11-.7,18.21-1.08,27.78H618.16c0-2.77-.11-5.22,0-7.66.16-3,.65-5.93.78-8.9.44-9.8.74-19.6,1.17-29.4.3-7.13.72-14.25,1.1-21.68a5.8,5.8,0,0,1,1.58-.42c11,0,22,0,33,.05a18.33,18.33,0,0,1,13,5.34,13.16,13.16,0,0,1,4.25,9.76c0,3.67.13,7.34-1.67,10.71A18.22,18.22,0,0,1,660.75,62C658.89,62.57,657,63.19,654.46,64Z"/><path d="M565.77,55H596c-.41,3.7-.78,7.06-1.19,10.77H565.62c-1,3.39-.49,6.55-.61,9.65s0,5.93,0,9.43c11.28-.06,22.33.33,33.86-.92-.38,3.87-.7,7.23-1.05,10.82H549.15c0-3.22-.11-6.33,0-9.43.16-3.47.67-6.92.82-10.39.43-10.12.71-20.25,1.15-30.37.26-5.76.73-11.51,1.12-17.49h48.5V37.86c-11.31-.14-22.37-1.9-33.7.19C566.65,43.55,566.24,49,565.77,55Z"/><path d="M755.25,28.11h48.6V38.4c-3,.85-5.86.33-8.78.13-8-.53-15.91-1-23.84.34a6.29,6.29,0,0,0-1.2.54c-.39,5.21-.79,10.6-1.23,16.5h29.85a13.78,13.78,0,0,1,.19,2.35c-.34,2.76-.75,5.51-1.17,8.6H768.25c-.34,6.42-.25,12.48-.45,18.92,11.53.2,22.57.3,34-.75-.34,3.73-.63,7-.92,10.22-3.24.94-41.32,1.21-48.73.32,0-3.08-.11-6.2,0-9.31s.66-6.26.79-9.39c.43-10.29.72-20.59,1.17-30.87C754.4,40.21,754.85,34.42,755.25,28.11Z"/><path d="M876.14,28.18H892c-11.37,22.67-22.6,45-33.92,67.59H840.57C832.76,73.38,824.93,50.94,817,28.16h15.66c2.82,8.92,5.71,18.17,8.66,27.4s5.91,18.21,9.06,27.89C859.11,64.71,867.58,46.55,876.14,28.18Z"/><path d="M706.14,84.08h31.17c-.16,3.57-.32,7-.49,10.64H689.5c.76-9.1,1.54-18.26,2.29-27.41.07-.83.05-1.67.08-2.5Q692.41,46.89,693,29c0-.48.14-1,.26-1.77,5-.54,10.1-.25,15.46-.17a28.77,28.77,0,0,1,.14,3.08c-.26,4.13-.61,8.26-.88,12.39-.62,9.42-1.29,18.85-1.77,28.28C706,75,706.14,79.33,706.14,84.08Z"/><path d="M635,185.22c-.38,4.15-.73,8-1.13,12.45a18.92,18.92,0,0,0,4.42-.06c4.13-1.06,8.13-.65,12.25.16,6.69,1.3,10.61,5.44,12,11.74a24.17,24.17,0,0,1-3,18.65,16.61,16.61,0,0,1-25.71,3.17c-.36-.34-.74-.65-1.52-1.33-.22,1.76-.4,3.22-.6,4.81h-9.39c-1.24-5.43.75-10.76.68-16.14-.06-5.62.62-11.24.82-16.86.19-5.45.19-10.9.27-16.59Zm-2,20.36c0,4.62,0,9.25,0,13.89a14,14,0,0,0,.77,3.36c1,3.86,3.81,5.69,7.58,6.12a8.47,8.47,0,0,0,8.74-4.48c2.68-4.44,2.42-9.28,1.38-14a7.85,7.85,0,0,0-6.12-6C641.42,203.58,637.26,203.31,633.05,205.58Z"/><path d="M540.2,229.89c-.15,1.79-.26,3.09-.39,4.69-3,.8-6.12.28-9.47.32-1.25-5.53.74-10.85.68-16.24-.08-5.62.61-11.24.81-16.86.19-5.45.19-10.9.28-16.82h10.94c-.4,4.39-.75,8.29-1.15,12.68a19,19,0,0,0,4.43,0c4.13-1.06,8.13-.65,12.25.16,6.69,1.3,10.6,5.44,12,11.75a24.15,24.15,0,0,1-3,18.64,16.62,16.62,0,0,1-25.71,3.17C541.48,231,541.1,230.68,540.2,229.89Zm.84-24.32c0,4.56,0,9,0,13.52a12.46,12.46,0,0,0,.68,3.38c1.22,4,4,6.25,7.8,6.51a8.76,8.76,0,0,0,8.94-5c2.32-4.36,2.11-9,1-13.59a7.77,7.77,0,0,0-5.73-5.78C549.59,203.51,545.34,203.35,541,205.57Z"/><path d="M743.11,213c-.65-2.46-1.18-4.5-1.84-7,2.34,0,4.47,0,6.61,0a9.23,9.23,0,0,0,6.26-2.64c2.14-2,2.33-4.4,1.58-6.86s-2.86-3.5-5.44-3.49c-3.29,0-6.59,0-10.23,0-.35,5.11-.74,9.85-1,14.61-.37,7.45-.63,14.91-.91,22.36-.06,1.48,0,3,0,4.74h-10.1c-.73-8.33,1-16.5,1-24.73s.58-16.23.91-24.61a33.72,33.72,0,0,1,3.38-.35c7,0,14,0,21,0a13,13,0,0,1,8.27,2.83c6.62,5,5.73,16.54-.44,21.53C756.61,213.82,750.38,215.05,743.11,213Z"/><path d="M612.17,234.77H601.63c.27-5.93.53-11.67.81-17.82a59.24,59.24,0,0,0-14,4.35,4.38,4.38,0,0,0-2.53,5c.29,1.87,1.71,3.31,4.24,3.58a73.19,73.19,0,0,0,7.58,0c-.31,1.27-.73,3-1.13,4.58a20.39,20.39,0,0,1-14.2.51c-6.64-1.95-9-10.55-4.39-15.73,2.57-2.88,5.86-4.31,9.44-5.23,3-.78,6.15-1.3,9.17-2.17,2.68-.78,5.53-1.57,6.09-5.06-1.17-2.78-3.3-3.75-6.29-3.87-5.23-.22-10.12,1.22-15.59,2.84.38-2.4.7-4.44,1-6.61,8-1.53,15.52-3.28,23.37-1.27,6.12,1.57,8,3.69,7.82,10.1-.12,4.48-.69,8.93-.84,13.41C612.06,225.7,612.17,230,612.17,234.77Z"/><path d="M899.78,234.79H889.63c.27-5.93.53-11.66.81-17.85-5,1.11-9.89,2.21-14.39,4.6a4.32,4.32,0,0,0-2.17,4.67c.25,2.29,2,3.22,3.73,3.47a60.35,60.35,0,0,0,8.11.09c-.32,1.35-.71,3-1.11,4.69a20.36,20.36,0,0,1-14.17.53A9.78,9.78,0,0,1,866,219.28c2.56-2.89,5.84-4.32,9.42-5.25,3-.79,6.15-1.31,9.17-2.17,2.7-.77,5.52-1.57,6.15-5-1.14-2.77-3.26-3.78-6.25-3.9-5.24-.21-10.14,1.16-15.63,2.87.36-2.39.67-4.43,1-6.63,7.94-1.54,15.49-3.29,23.34-1.29,6.16,1.57,8.08,3.68,7.87,10.06C900.76,216.73,900.23,225.51,899.78,234.79Z"/><path d="M519.53,235.06c-4.8.32-9.24.85-13.69.84a35.7,35.7,0,0,1-8.76-1.31c-5.85-1.53-9.44-5.77-10.71-11.36a23.8,23.8,0,0,1,2-16.94c3.47-6.43,9.42-8.41,16-9.29a23.91,23.91,0,0,1,10.28,1.32A13.32,13.32,0,0,1,524,211.07c0,1.46,0,2.93,0,4.88H496.54c-1,8.61,3.32,14,11.13,14,4.26,0,8.52-.78,13-1.23Zm-5.82-23.19c.24-6.2-2.63-9.2-8.06-8.89-5,.29-8.63,4.26-8.06,8.89Z"/><path d="M847.28,204.93H829.05l.65-6.72h29c.73,2.67,0,5.44.27,8.12l-19.72,21.29c6.22.89,12.25-.1,18.74.64-.36,2.21-.69,4.24-1.05,6.48h-29.7v-7.8Z"/><path d="M791.06,234.73v-7.6l20.06-22H793.05c.23-2.53.43-4.6.64-6.88h29c.74,2.64.15,5.4.19,8.21l-19.61,21.19c6.21.92,12.23-.13,18.71.66-.34,2.17-.66,4.2-1,6.45Z"/><path d="M462.15,208.56l20.45,26.12H468.94L450.2,208.46l19.13-23.36h12.76Z"/><path d="M448.07,234.76H437.23c0-4.49-.07-8.76,0-13,0-2,.51-3.93.6-5.91.41-10.08.76-20.18,1.15-30.55h11.44C449.66,201.7,448.87,218,448.07,234.76Z"/><path d="M782.75,234.81H772c.33-6.24.69-12.3,1-18.36s.5-11.91.75-18c3.72-.84,7.14-.35,10.54-.39C783.76,210.37,783.26,222.41,782.75,234.81Z"/><path d="M704.88,217.34c0,5.75-5.46,10.76-11.56,10.64s-11.2-5.25-11.09-11.1a11.33,11.33,0,0,1,22.65.46Z"/><path d="M774.09,191v-7h10.57v6.34c-1.54,1.23-3.43.51-5.18.63S776.18,191,774.09,191Z"/><path class="cls-1" d="M541,205.57c4.3-2.22,8.55-2.06,12.75-1a7.77,7.77,0,0,1,5.73,5.78c1.08,4.56,1.29,9.23-1,13.59a8.76,8.76,0,0,1-8.94,5c-3.81-.26-6.58-2.53-7.8-6.51a12.46,12.46,0,0,1-.68-3.38C541,214.61,541,210.13,541,205.57Z"/><path d="M206.11,174.3c.75,7.25-3.76,11.53-8.59,15.43-4,3.24-8.89,4.81-13.79,6.43-5.76,1.9-11.13.15-16.66-.57-1.89-.24-3.51-2-5.66-1-.28.13-.92-.33-1.3-.64-3.18-2.56-6.35-5.13-9.49-7.74s-4.67-6.46-5.5-10.33c-1-4.6,1.36-8.53,4.19-11.75a33.38,33.38,0,0,1,19.81-11.37,22.59,22.59,0,0,0,4-1.23c3.6-1.33,6.61,1.21,10,1.63,4,.5,7.81,2.41,11.56,4,3.9,1.71,6.64,5,9.12,8.3A11.19,11.19,0,0,1,206.11,174.3Zm-13.47,15.1c-2.2-3.12-4.46-4.17-7.44-3.23a3.51,3.51,0,0,0-2.07,1.82,3.15,3.15,0,0,0,.53,2.68c1.47,1.53,3.53,1.5,5.54,1.45A3.26,3.26,0,0,0,192.64,189.4Zm-23.9-16.89c1.29.88,2.37,2.05,3.65,2.36a10.61,10.61,0,0,0,4.85-.11,2.29,2.29,0,0,0,.62-4.22,13.07,13.07,0,0,0-5.05-1.48C171,168.85,169.8,170.06,168.74,172.51Zm20.33,3.1c-.57,2-.08,3.43,1.49,4.09,2,.81,4,1.44,6.08.12,1.82-1.15,2-3.23.21-4.42C194.3,173.69,191.69,173.35,189.07,175.61Zm-21.49,3.85c-1.91-3.23-4.57-4.4-7.75-3.41a2.53,2.53,0,0,0-1.15,4.32,5.63,5.63,0,0,0,4.5,1.66C165.22,182,166.73,181.37,167.58,179.46Z"/><path d="M54.48,98.71c-.21-2.36-.45-4.25-.51-6.13-.2-6,2.35-10.85,6.92-14.63,5.35-4.41,11.6-6.21,18.44-7.31,9.5-1.53,18,.66,26.07,5.12a18.57,18.57,0,0,1,9,10.72A16.9,16.9,0,0,1,109,104.35c-6.43,4.9-13.72,7.85-22,7.79-4.47,0-8.93.19-13.31-1.06a31.78,31.78,0,0,1-14.12-7.86C57.92,101.61,56.12,100.16,54.48,98.71Zm47.81-17.3c-1.46-1-2.54-2-3.83-2.37a6.49,6.49,0,0,0-3.82.24c-1.85.7-2.1,2.3-1.41,4C97.74,85.91,98.82,85.75,102.29,81.41ZM73,96.14c-2.31-3.11-4-4-6.7-3a4.06,4.06,0,0,0-2.21,2.28c-.21.65.5,1.89,1.15,2.47C67.52,99.93,70,99.37,73,96.14Zm22.77-2.38c-4.54-2.55-6-2.29-8.59,1.48,2.1,2.75,3.88,3.51,6.6,2.73C95.8,97.41,96.36,96.05,95.81,93.76Z"/><path d="M187.13,63.21c-6.89-.3-13.2-2-19-6.12a19,19,0,0,1-6-7.89A22.29,22.29,0,0,1,160,41.6a15.75,15.75,0,0,1,6-14,30.43,30.43,0,0,1,19.3-6.71c4.14,0,8.36-.36,12.32,1.12,6.6,2.46,13.09,5.48,15.36,12.82,3.32,10.7.14,17.38-7.65,23.1C200,61.83,193.79,63.34,187.13,63.21Zm.06-22.94c4.87,2.76,6.41,2.43,8.59-1.72-1.4-3.06-4.05-3-6.69-2.44C187.17,36.54,186.62,38.05,187.19,40.27Zm-8.95-3.88c-1.26-.93-2.17-2-3.29-2.33a8,8,0,0,0-4.31.19c-1.87.66-2.07,2.3-1.36,4C173.85,40.87,174.86,40.71,178.24,36.39Zm11,16.69A14.68,14.68,0,0,0,192.85,55a6.3,6.3,0,0,0,3.81-.41c1.83-.87,1.81-2.52,1-4.14C192.94,48.2,191.5,48.59,189.21,53.08Z"/><path d="M280.83,173.8c10.87.45,19,5.49,23.51,15.36,1.2,2.61.89,6.25.36,9.25a19,19,0,0,1-7.58,11.91c-6.8,5.14-14.34,6.7-22.8,5.1a34.59,34.59,0,0,1-9.27-3.31c-13.16-6.66-15.28-24.23-2.05-33.25A29.37,29.37,0,0,1,280.83,173.8ZM265,205.06c3.7,2.37,5.29,2.41,7.15.33a2.48,2.48,0,0,0-1.2-4.27C268.2,200.33,266.56,201.35,265,205.06Zm23.9-4.14c-.59-1.73-1.66-3-3.52-2.85a6.49,6.49,0,0,0-3.43,1.5,2.89,2.89,0,0,0-.7,2.58,3.22,3.22,0,0,0,2.14,1.69A4.42,4.42,0,0,0,288.85,200.92ZM271,192.05c-2.63-3.32-4.39-3.74-6.83-1.54a3.16,3.16,0,0,0-1,2.52,3.08,3.08,0,0,0,1.94,1.85C267.58,195.52,269.66,194.84,271,192.05Zm14.15-.46c.61.84,1,1.9,1.58,2.08a8.55,8.55,0,0,0,3.89.23c2.24-.44,2.81-2.06,2.21-4.15C289.08,187.67,288.7,187.74,285.13,191.59Z"/><path d="M119.76,198.39a23.57,23.57,0,0,0,.36,2.66c1.77,6.63,0,11.49-5.64,14.78-7.06,4.08-17.13,2.93-22.44-2.94A9.92,9.92,0,0,1,92,199.12c4.48-4.94,12.62-6.87,20.21-4.13C114.65,195.89,117,197.14,119.76,198.39Z"/><path d="M111.62,137.19c-.4-1-.77-2.11-1.22-3.16-2.22-5.14-1.53-9.38,2.81-12.78,7.2-5.66,16.09-6.07,23.73,0,7.33,5.85,3.32,15.18-2.1,17.81-5.93,2.87-12,3.3-18.18.39C115,138.7,113.37,138,111.62,137.19Z"/><path d="M96.22,59.44C95,56.77,93.91,54.24,92.93,52c1.62-10.33,8.32-12.28,14.9-13a16.7,16.7,0,0,1,15.3,6.51c3.3,4.25,2,11.36-2.78,14.35-6.45,4.07-13.23,4.81-20.23,1.31C99,60.63,97.74,60.13,96.22,59.44Z"/><path d="M232.16,226.65c.49,1.55.83,2.75,1.26,3.92,1.61,4.32.58,7.65-3.11,10.43a17.69,17.69,0,0,1-21.54-.71l-2.34-2c-1-3.86-1-7,1.35-9.88a15.37,15.37,0,0,1,10.68-5.55,15.91,15.91,0,0,1,8.65,1.55C228.74,225.19,230.4,225.88,232.16,226.65Z"/><path d="M103.77,159.5c-.08-1.42-.16-2.84-.26-4.57.37-.35.9-1.28,1.58-1.41,5.56-1.07,11.15-3,16.69.08.23.13.28.57.42.87-1-.44-2-.81-2,.89,5,2,8,5.22,9.37,13.39h1.91c-.5,1.32-1,2.65-1.68,4.48l-2.9-3.38-6.38,5.73.4,3.17h-4.54l.1-1.44c-2.27-1-5,.8-7-1.42,3.11,0,6.24.28,9.33-.21.65-4.75-5-4.32-5.68-7.77.6-1.93,1.24-4,1.84-6s3.79-2.58,2.72-5.47a9.6,9.6,0,0,0-1.35-.4C111.64,155.38,107.6,157,103.77,159.5Z"/><path d="M211.46,90.72c-3.27.46-6.23,1.35-9.11,1.16s-5.66-1.49-8.57-2.33l-2.39-7.37a17,17,0,0,0,1.77-1.94c3.43-4.86,8.49-4.86,13.47-4.11,1.91.29,3.86,1.9,5.28,3.39a6.57,6.57,0,0,1,1.77,5.78C213.42,87.5,213.76,89.4,211.46,90.72Z"/><path d="M60.94,191.1v-5.22c1.6-2.53,3.69-4.66,6.89-4.93,4.11-.35,8.28-.4,11.82,2.34,3.81,3,3,9-1.5,11.67A12.56,12.56,0,0,1,60.94,191.1Z"/><path d="M235.2,24.47,243.25,30c-.28,2.24-.19,4.27-.83,6-1.15,3.19-6.8,5.64-10.51,4.88-5-1-7.38-3-9.6-7.68C224,26.78,229.45,25.85,235.2,24.47Z"/><path d="M237.83,202.63l-3.47,3.05c-5.15-1.26-10.69.3-14.9-3.62-1.77-1.65-3.79-3-6.2-5a15.23,15.23,0,0,1,1.7-.64c.42-.08.86-.07,1.88-.14-1.7-2.71-.89-5.25-.18-7.86a19.55,19.55,0,0,0,.4,2c.74,2.48,1.64,2.94,4,1.91,1.51-.68,3-1.48,4.44-2.21a8.92,8.92,0,0,1,7.46,4.6v5.31l4.14.28C237.32,201.14,237.58,201.89,237.83,202.63Z"/><path d="M184.67,225,179,219.09V213.7c.49-.58,1.16-1.3,1.73-2.09,2.11-2.91,4.68-3.18,7.82-1.71,2.66,1.25,4.54,3.55,4.4,6.5-.14,3.16-1.36,5.68-4.74,6.71A21.28,21.28,0,0,0,184.67,225Z"/><path d="M42.18,119.47c-3.06-.28-5.61-.76-7.36-3.6s-.35-4.94.87-7.33,2.86-1.84,4.89-1.76c2.93.11,5.51.57,7.63,2.78,2.64,2.73,2.35,6.42-1,8.3A25.33,25.33,0,0,1,42.18,119.47Z"/><path d="M299.81,163.09c1.11-4.92,4-6.23,8.13-6.26s7,1.26,8.07,5.52c-1.91,5-3.68,6.56-8,6.42a9.35,9.35,0,0,1-5-1.48C301.54,166.2,300.68,164.29,299.81,163.09Z"/><path d="M166.58,233.54c-.7-2.16-1.16-3.4-1.5-4.66a12.41,12.41,0,0,0-6.84-8.15c-10-4.92-16.75-5.14-26.87.25.19-.63.18-1.09.4-1.27a23.78,23.78,0,0,1,20.39-5.6,35,35,0,0,1,9.64,3.79A12.13,12.13,0,0,1,168,230.45,15.13,15.13,0,0,1,166.58,233.54Z"/><path d="M144.92,46l2.93,3c.17,4.91-1.17,7.1-4.76,7.91a9.19,9.19,0,0,1-6.23-.83c-2.05-1-3.57-2.29-3.94-4.66C134.41,45.22,139.24,45.74,144.92,46Z"/><path d="M89.07,146.62c-2.31,1.51-4.42,2.76-6.39,4.2s-3.52,2.89-5.34,4.4l-4-2.2c3.14-2.77,6.78-3.62,10-5.92-4.76-4.79-11-7.47-14.9-12.84A51,51,0,0,1,89.07,146.62Z"/><path d="M161,88.93c-2.12-2.3-5.21-1.48-7.91-2.49l-3.29,3.72c-1.43-2.14-.86-3.58,1-4.15a70.82,70.82,0,0,1,8.65-2c2.92-.52,5.9-.72,8.83-1.21a26.43,26.43,0,0,0,3.85-1.26l-4.33-9c3.6,2.94,4.91,7.12,7.11,11-4,2.14-8.5,1.55-12.59,2.88l-1.39,2.54Z"/><path d="M237.83,202.63l-.77-2.23c.44-2.42,3.37-1.78,4.48-3.8l-.52-1.91a8.82,8.82,0,0,0,3.16-7.6c3,1.48,3.83,3.62,3.62,9.3l-7.93,7Z"/><path d="M71.57,123.31c7.41-.63,13.09,2.28,17.06,8.63-2.93,5.69-2.93,5.69-9.5,4.69,1.68-.84,3-1.66,2.93-3.64a7,7,0,0,0-2.64-5.67C77.05,125.51,74.57,123.86,71.57,123.31Z"/><path d="M160.9,89.05a2.56,2.56,0,0,1,3.18,2.36c.3,1.7.2,3.55-1.41,4.48a24.79,24.79,0,0,1-6.72,3,25.64,25.64,0,0,1-6.95.07c-1.29-.09-2.54-.69-3.83-.86a28.57,28.57,0,0,0-3.6,0c-.46-.93-.86-1.72-1.7-3.38a19.27,19.27,0,0,0,12.28,2.29A24.59,24.59,0,0,0,158.77,95c2.6-1.16,3-2.79,2.24-6.11Z"/><path d="M153.92,244.13c-1.06-3.6-2.06-7-3.35-11.45l5.27,3.92c.53,2,1.19,4.51,1.94,7.36Z"/><path d="M57,149.71c1.35-3.16,2.46-5.77,3.66-8.6l3.65,5.43C62.67,149.43,60.47,150.53,57,149.71Z"/><path d="M297.71,67.78c2.83-.49,4.87-.69,6.82-1.21,11.77-3.14,23.22-2.9,34.08,3.21,2.42,1.36,4.86,2.69,6.51,5.2,3.23,4.92,3.4,5.17,2.76,14.43-5.52,6.48-11.88,12.12-20.38,14.92-9.48,3.12-18.47,2-27.07-3a8.05,8.05,0,0,0-3.17-1.3c-2.74-.19-4-2.08-5.2-4.07-.67-1.1-1.14-2.32-1.84-3.4-5.76-8.73-2.55-15.58,4.08-21.29.74-.64,1.68-1.07,2.36-1.76A7.47,7.47,0,0,0,297.71,67.78ZM302,89.47c0-2.41-1.29-3.63-3.69-3.55s-3.5,1.43-3.37,3.88c.12,2.19,1.24,3.26,3.45,3.3C300.83,93.14,302.05,91.91,302,89.47Zm12,6.42a4,4,0,0,0-3.87,3.72,4.08,4.08,0,0,0,3.64,3.44,3.58,3.58,0,1,0,.23-7.16Zm11.3-8A3.94,3.94,0,0,0,329,84.55a3.81,3.81,0,0,0-3.36-4.19,3.87,3.87,0,0,0-3.66,3.37A3.94,3.94,0,0,0,325.29,87.94ZM313.76,79.8c2,.49,4,.8,5.1-1.51a4.14,4.14,0,0,0-1.2-4.9,3.65,3.65,0,0,0-4.48.77C311.66,75.76,311.73,76.47,313.76,79.8Z"/><path d="M253.58,103.19c-3,.18-5.53-1.14-7.75-2.87a7.32,7.32,0,0,1,.68-12.2,13.55,13.55,0,0,1,15,0c4.83,3,5,9.09.44,12.43A13.94,13.94,0,0,1,253.58,103.19Z"/><path d="M287.11,107.81c-4.5,5.54-8.16,5.62-11.18.56C278.92,103.67,280.13,103.59,287.11,107.81Z"/><path class="cls-1" d="M192.64,189.4a3.26,3.26,0,0,1-3.44,2.72c-2,0-4.07.08-5.54-1.45a3.15,3.15,0,0,1-.53-2.68,3.51,3.51,0,0,1,2.07-1.82C188.18,185.23,190.44,186.28,192.64,189.4Z"/><path class="cls-1" d="M168.74,172.51c1.06-2.45,2.26-3.66,4.07-3.45a13.07,13.07,0,0,1,5.05,1.48,2.29,2.29,0,0,1-.62,4.22,10.61,10.61,0,0,1-4.85.11C171.11,174.56,170,173.39,168.74,172.51Z"/><path class="cls-1" d="M189.07,175.61c2.62-2.26,5.23-1.92,7.78-.21,1.78,1.19,1.61,3.27-.21,4.42-2.07,1.32-4.12.69-6.08-.12C189,179,188.5,177.66,189.07,175.61Z"/><path class="cls-1" d="M167.58,179.46c-.85,1.91-2.36,2.58-4.4,2.57a5.63,5.63,0,0,1-4.5-1.66,2.53,2.53,0,0,1,1.15-4.32C163,175.06,165.67,176.23,167.58,179.46Z"/></g></g></svg>