<svg xmlns="http://www.w3.org/2000/svg" viewBox="0 0 444.18 52.43"><g id="Layer_2" data-name="Layer 2"><g id="Layer_1-2" data-name="Layer 1"><path d="M181,39.21v12.9h-6.86V41.74c0-7,0-14,0-21,0-2.94.55-3.55,3.28-3.56,8.48,0,17-.15,25.44.07a11.79,11.79,0,0,1,6.67,1.85c2.67,1.94,4.29,4.41,3.65,8a29,29,0,0,0,0,4.48c-.06,2.48-.52,4.67-3.32,5.66-.85.3-1.37,1.46-2.21,1.88-.63.31-1.54.06-2.73.06l10.12,13c-3.12,0-5.45.31-7.63-.12-1.2-.24-2.3-1.6-3.2-2.66-2.49-2.92-4.85-6-7.25-9a3.36,3.36,0,0,0-3-1.3C189.75,39.27,185.61,39.21,181,39.21ZM206.07,25.6c-4.09-2.36-8.24-1.17-12.24-1.35-4.24-.18-8.5,0-12.58,0V32h24.82Z"/><path d="M82.09,52.21c0-10.6,0-20.75,0-30.91,0-3.87.23-4.07,4.28-4.08,7.84,0,15.67,0,23.5,0a15.76,15.76,0,0,1,7.16,2,6.79,6.79,0,0,1,4,6.49c0,6.34,0,12.67,0,19a7.53,7.53,0,0,1-7.62,7.49C103.13,52.24,92.82,52.21,82.09,52.21Zm32-26.73c-1.25-.41-2.56-1.18-3.88-1.21-6.16-.13-12.32-.09-18.48,0a2.39,2.39,0,0,0-2.63,2.71q-.07,8.23,0,16.48c0,1.84.86,2.76,2.57,2.77,6,.05,12,.14,18,0,3.13-.08,4.42-1.75,4.43-5C114.1,36,114.09,30.87,114.09,25.48Z"/><path d="M45.18,38v7.32a49.25,49.25,0,0,0,6,.81c7.81.1,15.63,0,23.65,0v6c-9.87,0-19.66,0-29.45,0-4.26,0-8.16-4.13-8.31-8.84a148.31,148.31,0,0,1,.09-16.47c.24-3.1,1.22-6.48,4.66-7.9a18,18,0,0,1,6.76-1.76c7.65,0,15.31,0,23,0,2.84,0,3.4.59,3.48,3.38,0,1.12,0,2.25,0,3.61H50.44a24.86,24.86,0,0,0-3,0,2.32,2.32,0,0,0-2.37,2.48c0,1.67,0,3.33,0,5.19A14.14,14.14,0,0,1,48,31.24q7.5-.09,15,0c2.42,0,3,.72,3.14,3.21,0,1.15,0,2.29,0,3.6Z"/><path d="M167,46.21v6c-10.4,0-20.69,0-31,0a2.9,2.9,0,0,1-1.8-.43c-2.85-2.47-5.21-5.19-5.13-9.35.1-5.16,0-10.33,0-15.49.05-4.7,2.94-7.59,7.38-8.82a33.59,33.59,0,0,1,9.11-.88q9,0,18,0c2.86,0,3.42.58,3.5,3.36,0,1.13,0,2.26,0,3.63H140.94c-1.29,0-2.76-.3-3.5,1.17-.84,1.69-1.92,3.41-1.2,5.37.14.38.68,2.17,2.07.81.38-.36,1.21-.33,1.84-.33q7.24,0,14.49,0c2.82,0,3.37.61,3.44,3.42,0,1.13,0,2.25,0,3.57-6.11,0-11.91,0-17.71,0-3.37,0-4.18.51-4.29,2.58-.15,2.51,1.73,5.09,4,5.39a23.08,23.08,0,0,0,3,0Z"/><path d="M308.09,24.21c-9,0-17.66,0-26.31,0-3.31,0-4.76,1.53-4.69,4.75.05,2.53,0,2.36,3.22,2.28,5.33-.14,10.66-.08,16,0,2.21,0,2.81.92,2.79,3.57s-.65,3.37-3,3.4c-5.16,0-10.33.07-15.49,0-1.62,0-3,.16-3.52,1.87-.65,2.23,0,4.35,1.7,5.13a10.06,10.06,0,0,0,4.56,1.09c8.14-.13,16.27-.06,24.56-.06v6h-3.7c-8.49,0-17-.26-25.48.15a8.53,8.53,0,0,1-8.67-8.11c0-6-.07-12,0-18,.07-3.94,3.32-7.1,7-8.14,3.38-.95,6.72-.88,10.11-.9,5.83,0,11.66,0,17.49,0,2.75,0,3.27.62,3.34,3.51C308.11,21.74,308.09,22.73,308.09,24.21Z"/><path d="M345.54,52.29c-3.64.52-8.52-.44-13.2-2.15A17.06,17.06,0,0,1,326,46.41c-3.2-3.3-2.41-7.48,2.15-10.17a26.07,26.07,0,0,1,13.8-4.08c1.35,0,2.77-1,4.06-.88,6.81.9,13.78,1,20,4.82a11.45,11.45,0,0,1,4,4.51c.94,1.65-.62,5.12-2.55,6.6-2.23,1.72-6.57,3.21-9.3,4.08C354.35,52.46,350.65,52.09,345.54,52.29Z"/><path d="M229.09,27.71v24.4h-7V39.73c0-6.49,0-13,0-19.48,0-2.16.78-2.84,2.82-3.05a8.25,8.25,0,0,1,7.72,3.08c6.36,7.84,13.79,14.65,21.16,22.17.11-1.33.27-2.36.27-3.38,0-6.16,0-12.32,0-18.48a3.71,3.71,0,0,1,5.83-3,2.69,2.69,0,0,1,1,1.06,3.6,3.6,0,0,1,.12,1.44c0,10.63,0,21.25,0,31.71-.37.25-.51.41-.64.41-2.31,0-4.86.54-6.89-.25-1.84-.71-3.12-2.89-4.65-4.42Z"/><path d="M391.92,15.21a26.84,26.84,0,0,1,13.82,2.86c2.45,1.29,4,3.24,4.1,5.28.06,1.84-1.63,3.82-3.89,4.94a25.2,25.2,0,0,1-10.79,2.91c-2.5.05-5,0-7.49,0a29.44,29.44,0,0,1-10.75-3c-2.53-1.49-3.88-5.08-2.7-7.56.31-.63,1.24-.95,1.87-1.44,3.92-3.09,8.45-4.12,13.33-4C390.25,15.23,391.09,15.21,391.92,15.21Z"/><path d="M34.09,52.21c-9.07,0-17.87,0-26.67,0-1.9,0-3.78-.49-4.61-2-1-1.84-2.89-3.22-2.81-5.86.23-7.82.06-15.66.09-23.49,0-3.32.37-3.63,3.66-3.7,1,0,2,0,3.34,0,0,7.06.24,14-.07,21s2.34,8.4,8,8.09c4.65-.25,9.32,0,14,0,.83,0,1.91.34,2.46-.06,2.11-1.54,2.37.17,2.57,1.45A30.35,30.35,0,0,1,34.09,52.21Z"/><path d="M416,7.39c1.8-5.26,6.44-6.23,10.47-7A18.46,18.46,0,0,1,440.67,3.1,14.7,14.7,0,0,1,443.32,5c1.35,1.44,1.08,4.29-.62,5-3.56,1.53-7,3.65-11.13,3.21-2.43-.26-4.92,0-7.32-.42A12.66,12.66,0,0,1,416,7.39Z"/></g></g></svg>