<svg xmlns="http://www.w3.org/2000/svg" viewBox="0 0 1697.43 523.66"><g id="Layer_2" data-name="Layer 2"><g id="Layer_1-2" data-name="Layer 1"><path d="M1.44,10.11a2369.59,2369.59,0,0,1,436.83,0V24.71c0,76.29.21,152.59-.15,228.89-.25,52.64-7.19,104.27-28.66,152.94-34,77.12-94.94,113.87-177.93,116.88-34.24,1.24-67.85-2.08-99.89-15C69.12,483.1,33.85,433.74,18.22,371.14A585.4,585.4,0,0,1,1.4,250C-1.2,173.76.62,97.4.64,21.1.64,17.9,1.1,14.69,1.44,10.11ZM418.75,312.83l-1.47-3.74c-6.91,2.54-13.77,5.24-20.75,7.59-7.59,2.55-15.23,5-22.95,7.1-75.41,20.47-148.09,19-216.15-25.2-16.52-10.74-34.37-19.69-52.3-28-24.85-11.47-51-17.52-78.22-9.43-4.23,1.26-10.38,6.81-10.25,10.17.7,18.56,3.08,37.05,4.89,55.55,60.11-7.07,68.34-6.37,104.29,9.35,10.79,4.72,21.61,9.48,31.95,15.07,50.31,27.18,102.48,29.07,156.09,11.9C351.22,351.27,385.75,333.57,418.75,312.83ZM42.36,398.59c34.19-13.8,64.05-4.82,93.35,8.6q16.69,7.65,33.16,15.79c26.36,12.95,54.13,19,83.48,17.13,54.82-3.59,102.31-27,148-55.07.53-.32.45-1.66.67-2.56-.84-.31-1.79-1-2.44-.82-4.48,1.4-8.91,3-13.35,4.54-52.13,18.25-105.62,26.72-159.63,12.41-24.59-6.52-47.14-20.75-70.6-31.53-22.6-10.38-44.59-22.45-67.94-30.74-20.29-7.2-41.59-5.31-62.94,6.17Zm309.48,60.82c-2.61.57-5.26,1-7.84,1.74-70.39,19.84-136.81,14-198-29.24a222.44,222.44,0,0,0-40.67-22.44c-18.12-7.76-37.06-8.92-56.84.25,29.41,57.58,75.7,90,138.45,97.9C248.3,515.3,305.37,505.15,351.84,459.41ZM18.29,158.76c-.34,1.52-.67,3-1,4.55,9.09,1.54,18.2,4.53,27.26,4.37,50.46-.89,93.5,18.47,133.59,46.86,17.67,12.5,35.48,24.88,53.93,36.19,32.58,20,65.48,18.7,97.12-2.19,24.92-16.45,51.59-18.82,79.91-13.1,4.42.89,9,1,13.51,1.4-31.35-27.23-67.51-32.72-105.28-25-53.23,10.85-101.94,2.28-147.08-27.71-14.12-9.38-28.1-19.07-42.83-27.41-12.62-7.14-25.81-13.76-39.53-18.25-7.4-2.42-17.07-1.77-24.58.82C47.89,144.59,33.25,152.14,18.29,158.76Zm179,24.93c18.27,15.05,58.59,24.87,78.54,18.57-3.32-4.24-6.75-8-9.47-12.2-8.64-13.39-18.76-26.18-25.13-40.61-14.35-32.51,4.49-59.1,40.05-58.18,7,.18,14,1.89,21,2.6,14.93,1.53,29.93,4.49,44.81,4,37.72-1.29,70-31.3,75.28-70-3.88,4.09-6.76,6.83-9.31,9.84C399.89,53.18,382.88,60.55,363,59.36c-15.42-.92-30.72-4.07-46-6.46-19.5-3-38.91-8.53-58.45-9-36.94-.9-59.91,27-50,62.4,6.34,22.67,19,43.6,29.06,65.18,2,4.33,5.27,8.08,10.55,16Zm200.88-76.44c-24.78,18.27-48.6,16.9-73.16,10.09-14-3.89-28.16-8.19-42.53-10.19-17.95-2.49-34.06,9.29-32.79,24.75,1,12.23,7,24,10.81,36,12.51-32.13,20.45-30.5,49.42-26.28,11.18,1.63,22.31,4.28,33.53,4.73C367.92,147.39,386.38,134.51,398.12,107.25Zm-113.9,92.81c7.83-22.18,11.39-24.58,33.12-21.28,7.91,1.2,15.85,2.59,23.82,2.92,15.64.64,29.6-2.81,39.52-20.21-22.19,7.41-41.09,2.48-59.93-4.1a106.51,106.51,0,0,0-20.52-5C285.1,150.33,274,160.44,276,175.62,277.09,184,281.38,191.93,284.22,200.06Z"/><path d="M1344.91,143.86C1327,119.86,1325.34,95.32,1328,70c4.2-39.35,30.74-64.47,70.24-61.62,22,1.58,43.39,2.46,65.09-.59,4.12-.58,8.38-.09,12.58-.09l2.09,4.47L1448.5,25.72c17.22,22.11,19.16,45.74,17.31,70.06-3.22,42.23-30.87,68.92-72.74,65.06-22.09-2-43.4-1.15-65.11.48-3.62.27-7.49-2.89-11.24-4.47,3.25-1.69,6.44-3.53,9.77-5C1331.84,149.36,1337.28,147.14,1344.91,143.86Zm84-88.2-51.53,79.53c18.15,11.36,39.18,7.45,48.81-9.53C1438.67,103.76,1437.64,80.33,1429,55.66Zm-64.59,57.94L1415.87,34c-17.71-10.58-37-7.76-47.11,7.51C1354,63.79,1356.31,88.13,1364.36,113.6Z"/><path d="M953.71,158.1H923.55V73c0-11.3-.22-22.61.07-33.9.23-9.3-1.46-16.76-12.14-19.36-2.17-.53-3.6-4-7.06-8.14,33,0,62.9-1.16,92.7.44,17.73.95,27.25,11.72,30,27,3.73,20.77-2.81,37.94-18,46.91-3.6,2.13-7.43,3.87-13.68,7.09,12.58,17.72,24.11,35.22,37.15,51.52,3.49,4.37,11.65,4.89,17.45,7.65,2,1,3.41,3.34,5.09,5.08-1.93,1.44-3.79,4-5.81,4.15-23.46,1.52-45.24-.23-57.86-25-6.59-12.94-15.29-24.86-23.7-36.78-2-2.84-6.67-3.8-10.11-5.63-1.31,3.22-3.69,6.42-3.76,9.66C953.52,121.4,953.71,139.21,953.71,158.1Zm0-106.32c0,27.21,5.4,32.39,26.59,25.53,12.55-4.07,19.3-17.3,16.29-31.9-2.91-14.07-16.07-21.65-34.27-18.85-15.22,2.34-6.12,14.77-8.58,22.43A9.29,9.29,0,0,0,953.68,51.78Z"/><path d="M905,223.1c14.79,0,29.62-.55,44.34.49,2.72.2,5.88,6.5,7.33,10.52,12.09,33.66,23.82,67.45,35.69,101.19,1.38,3.92,2.94,7.78,5.72,15.08,3-7.32,5.14-11.64,6.66-16.16,10.07-29.88,20-59.8,30-89.7,8.3-24.73,9.22-25.2,37.2-19.74v146h-17.81V242.4l-3.09-.73c-1.5,3.46-3.24,6.84-4.45,10.4-12.25,36.1-24.54,72.19-36.47,108.39-2.44,7.41-5.21,11.85-14.39,11.91s-11.9-4.58-14.38-12c-12.43-37-25.25-73.93-38-110.86a11.74,11.74,0,0,0-6.1-7.2V371.1H920.93V332.9c0-25.92-.43-51.84.18-77.75.31-13.13-.52-24.55-17.43-27.56C904.12,226.09,904.57,224.6,905,223.1Z"/><path d="M1241.76,241.59q-12.45,36.43-24.89,72.87c-5,14.71-9.83,29.46-14.65,44.22-2.38,7.26-4.17,13.59-14.66,13.71-10.33.12-12.45-5.6-15-13.11-12-35.67-24.35-71.25-36.6-106.85a18.93,18.93,0,0,0-6.66-9.76V370.74h-16.4V284.17c0-9-.47-17.94.11-26.86.9-13.87.09-26.44-18.17-30.12l1.66-4.09c15,0,30.07-.55,45,.52,2.63.18,5.53,6.9,7,11.06,11.54,32.36,22.74,64.84,34.11,97.26,1.81,5.18,3.92,10.26,7.39,19.31,4.7-13.43,8.1-22.91,11.33-32.45,8.75-25.85,18.38-51.46,25.76-77.7,4.21-15,11.62-21.06,26.69-18.29,2.74.51,5.58.44,9.62.73V370.81h-17.35V242.32Z"/><path d="M852.33,10.79h26.54c0,12.51.15,24.59,0,36.67-.36,24-.18,48.05-1.59,72-1.19,20.16-13.15,35.61-33.14,38.62a183.41,183.41,0,0,1-55.79-.25c-20.24-3.26-31.24-19.85-32-42.73-.76-24-.46-48-.34-72,.06-10.87.08-21.13-13.91-23.92-1.4-.28-2.06-4.29-3.66-7.94h47.45c.26,5,.75,10,.76,14.94.1,27.79-.31,55.59.23,83.37.43,22.26,10.52,31.51,32.61,31.59s32.35-9.06,32.71-31.37C852.72,77.28,852.33,44.84,852.33,10.79Z"/><path d="M1555.48,344.81q0-10.14,0-20.29c0-29.64.27-59.29-.11-88.94-.13-10.52,2.92-15.33,15-11.19V369.77c-22,5.09-23.3,4.63-33.32-12.92q-27.3-47.79-54.47-95.65c-2.48-4.33-5.18-8.53-10.65-12.11V370.5L1455.28,372V323.11c0-22.59-.46-45.19.17-67.76.38-13.23-.76-24.58-17.32-27.65,16.18-10.8,43.69-5.35,52,9.24q27.55,48.46,55.15,96.89c2.22,3.89,4.75,7.6,7.14,11.39Z"/><path d="M1155.8,72.5V91.37c-12.45,0-24.13.37-35.77-.12-8.72-.37-11.11,3.26-11.38,11.62-1.23,37.25-1.46,37.24,35.12,37.26h27.52v17.6h-92.9c-.23-4.29-.74-9.23-.75-14.18-.07-32,0-64-.06-96,0-12.14,1.82-25.18-14.5-29.5-.89-.24-1-3.21-2-6.43h106.61V29.1c-15.71,0-31.14.37-46.55-.14-8.93-.29-12.69,2.4-12.46,11.92.94,38.95-4.88,30.59,30.74,31.6C1144.5,72.63,1149.58,72.5,1155.8,72.5Z"/><path d="M1198.56,157.26V137.82c10.07,1,19.63,2.27,29.23,2.82,7,.4,14.92,1.78,20.94-.78,7-3,16-9,17.3-15.09s-4.22-16.14-9.84-20.4c-10.36-7.83-23.11-12.44-34.61-18.85-12.13-6.77-20.28-16.41-21.27-31.12-1.82-27.21,12.06-43.78,41.41-46.13,12.44-1,25.2,1.65,37.79,2.92,11.88,1.2,16.34,7.43,11.87,19.89-8.55-1.17-17.2-2.86-25.93-3.37-7-.42-14.55-.89-20.83,1.43-5.37,2-12.37,7.47-13,12.21-.81,5.58,2.75,14.29,7.35,17.64,9.75,7.11,21.41,11.61,32.27,17.21,20.72,10.69,29.63,26.13,26.87,46.48-2.79,20.63-14.75,34.5-38.33,36.84C1239.69,161.51,1219.13,158.22,1198.56,157.26Z"/><path d="M889.2,295.55c-1,7.91-1.48,15.93-3.15,23.69-10.74,49.91-64.68,72.41-108,45.16-22-13.8-27.62-35.76-29.22-59.56-2.86-42.62,18.41-75.84,52.71-82.54C854.16,212,888.88,241.22,889.2,295.55Zm-119.3,1c2,12.48,2.66,23.37,5.58,33.63,5.73,20.08,20,30.65,40.12,31.48,22.43.92,37.63-8.14,45-28.67,8.36-23.22,8.8-47,.56-70.43-6.76-19.22-21.88-29.37-42-29.48-19.32-.1-34.9,9.5-41.47,28C773.56,272.88,772.22,285.61,769.9,296.58Z"/><path d="M709.54,72.5V91.35c-7.55,0-14.84-.08-22.13,0-28.56.39-24.94-3.84-25.26,25.9-.14,13.13,0,26.28,0,40.52H631.42V133.22c0-29.66-.11-59.33,0-89,0-11.19.58-22.2-14.12-25.29-1.36-.28-1.92-4.37-3.33-7.89H721.1c.27,5.36.53,10.65.9,18.08-16,0-31,.51-45.93-.18-10.21-.48-14.37,2.51-14.11,13.38.89,36.83-3.81,29.31,29.6,30.15C697.11,72.62,702.67,72.5,709.54,72.5Z"/><path d="M1285.94,224.35h35.9v48.57c0,16.46-.34,32.94.13,49.4.76,26.57,12.89,38.92,37.7,39.22,26.5.32,39.33-11,40.24-38,1-29.14.79-58.34.36-87.5-.19-13,5.35-15.42,16.74-11.67,0,37.71,0,75.21-.06,112.71,0,1.8-1,3.62-1.54,5.41-7.76,24.47-32,35.52-69.47,31.71-25.79-2.62-41.82-17-43.38-41.77-1.5-23.91-.75-48-1.12-71.94-.21-13.7,3.69-29.35-18.87-33.19Z"/><path d="M1595,223.61c4.41-.25,8.82-.7,13.23-.72,24-.06,48-.22,72.07.15,5.2.08,14-3.69,13.4,6.52-.14,2.21-8.2,5.41-12.72,5.62-15.42.7-30.89.27-47.51.27v52.69c12.7,0,25.69-.57,38.57.36,3.64.26,7,4.86,10.43,7.47q-1.29,2.32-2.6,4.65c-11.7,0-23.41.36-35.1-.12-8.72-.36-13.1,2.1-12.6,11.79.63,12.19.57,24.47,0,36.68-.41,8.88,3.5,11.48,11.68,11.31,14.6-.3,29.22-.34,43.8.23,3.31.13,6.5,3.18,9.75,4.88-3.27,2.2-6.49,6.25-9.8,6.32-24.83.54-49.68.29-76.29.29V311.41c0-18.82-.56-37.66.19-56.45.53-13.34-1-24.42-17.74-27.31C1594.2,226.3,1594.61,225,1595,223.61Z"/><path d="M737,225.77c-16.5,18-32.57,36.37-49.71,53.71-7.59,7.68-7.49,13.18-1.32,21.43,9.58,12.79,17.69,26.66,26.86,39.78,8.14,11.64,16.78,23,32.45,25.17,1.18.17,2.38,1.37,3.21,2.38.5.59.3,1.76.4,2.67-16.24,7.67-36.54,4.43-46.44-9.41-15.84-22.12-30.39-45.17-45.8-68.29,19.33-22.42,37.51-44.64,57.18-65.46,4.43-4.69,14-4.51,21.25-6.57Z"/><path d="M649.65,371.26H630.72V348.58c0-30.63-.29-61.27.13-91.9.18-13.3,0-25.64-15.9-32.09h34.7Z"/></g></g></svg>