<svg xmlns="http://www.w3.org/2000/svg" viewBox="0 0 462.91 167.79"><g id="Layer_2" data-name="Layer 2"><g id="Layer_1-2" data-name="Layer 1"><path d="M38,128.8c4.16,0,8.33-.11,12.49,0a11.59,11.59,0,0,0,7.19-2c4.64-3.09,8.25-6.65,10.48-12.12A38.59,38.59,0,0,0,71,98.9c-.06-2.66.12-5.33,0-8a30.31,30.31,0,0,0-1-7.06c-1.52-4.88-2.21-10-4.31-14.68-1.91-4.24-1.81-8.51-1.54-12.81.23-3.59,5.52-8.39,8.75-8.44a69.83,69.83,0,0,1,9.49.09c1.9.23,3.76,1.34,5.51,2.29,4.06,2.2,5.55,6.28,6,10.34.57,5.1.91,10.46-.06,15.43-1.21,6.25-.42,12.41-.76,18.6a34.88,34.88,0,0,0,.54,5.25,33.21,33.21,0,0,0,.47,4.81c.42,1.61,1.38,3.09,1.93,4.68,2.06,6,6.48,10.84,12.28,12,5.63,1.17,11.14.54,15.59-4a124.19,124.19,0,0,0,13.53-16.35c5-7.13,10.3-14.1,16.78-20.09A47.07,47.07,0,0,1,166,73.37a4.49,4.49,0,0,1,2.29-.46c1.89.2,4.27-1,5.54.68.87,1.17-.86,1.14-1.78,1.32a8.65,8.65,0,0,0-2.59,1,25.36,25.36,0,0,0-9.48,10c-3.52,6.09-5.45,12.76-7,19.56-.25,1-.73,2-1,3.09a1.43,1.43,0,0,0,.46,1.24,1.35,1.35,0,0,0,1.29-.27,20.41,20.41,0,0,0,1.45-2.38,123.38,123.38,0,0,1,8.72-12.92c4.5-5.76,9.82-10.66,15-15.65a24,24,0,0,1,18.19-6.64,3.09,3.09,0,0,1,1.42.17c.85.55,2.28,1.31,2.24,1.9-.1,1.38-1.28,2.14-2.83,1.92-6.51-.89-9.34,3.48-12.06,8.24-3.38,5.93-5.39,12.42-8,18.64-1.83,4.28-3.47,8.8-7.27,12-1.3,1.1-2.12,2.77-3.23,4.12-.72.88-1.57,1.66-2.36,2.48,1.44.15,3.14.86,4.26.33,2.51-1.16,5.34-1.65,7.4-4,3.64-4.11,7.73-7.78,10.64-12.59,1.73-2.86,4.75-4.76,7.81-6.28a10.52,10.52,0,0,1,9.66,0c1.42.67,2.52,1.29,4.11-.27,1.75-1.71,4.38-.47,6.61-.66a2.73,2.73,0,0,1-.21,1c-2.09,3.13-4.23,6.23-6.34,9.36-2.27,3.36-5,6.4-6.37,10.34-.15.44-.51.81-.62,1.24-.36,1.36.57,2.38,1.85,1.87a14.6,14.6,0,0,0,4.42-2.66,79.78,79.78,0,0,0,13.26-15.54,105.05,105.05,0,0,0,7.1-12c2.06-4.23,5.21-7.75,7.18-12,.26-.56,1-1,1.12-1.53,1.21-4.37,4.15-5.8,8.42-5.15.79.12,1.59.18,2.38.28-.43.58-.86,1.18-1.31,1.76a74.21,74.21,0,0,0-7.48,11.38q-2.81,5.35-6,10.49c-1.33,2.15-3,4.08-4.53,6.13-2.72,3.69-5.52,7.34-8.08,11.14a32.82,32.82,0,0,0-2.51,5.44,17.46,17.46,0,0,0-.6,2.06c.63.08,1.26.21,1.89.25,1.73.12,3-.84,4.22-1.86,4-3.35,11-11.83,13.39-16.43.43-.83,1.07-2.23-.75-2.67-1.6-.39-1.16-1.21-.42-2.06.31-.36.8-1,1.09-.89,3.36.74,4.7-1.07,5.83-3.89.57-1.42,2.22-2.43,3.44-3.56.61-.57,6-.89,6.67-.44.12.09.08.46,0,.69s-.23.23-.33.35c-1.42,1.75-2.88,3.46-4.19,5.28-.18.24.34,1.44.59,1.45,2,.12,4,0,6,.09a4.24,4.24,0,0,1,1.29.48c-.23.56-.31,1.39-.73,1.64a6.09,6.09,0,0,1-2.64.82,28.94,28.94,0,0,0-5.63.85,6.45,6.45,0,0,0-4,3.1,64.94,64.94,0,0,1-4.8,6.54,33,33,0,0,0-4.13,7.25,5,5,0,0,0,.11,2.9,2,2,0,0,0,2.73,1,38.86,38.86,0,0,0,9.39-6.31c7.24-6.91,12.59-15.11,17.89-23.54,3.83-6.07,7-12.65,11.65-18.23.62-.74.74-1.56,1.89-1.44a12.51,12.51,0,0,0,1.5,0c1.33-.05,3.06-.22,3.36,1.26a4.59,4.59,0,0,1-1.18,3.67c-2.75,2.56-4.53,5.78-6.62,8.79-3.5,5-6.95,10.08-10.24,15.24-2.51,3.92-4.82,8-7.06,12a34.48,34.48,0,0,0-2.44,6c-.27.82-.42,1.94,1.27,2a10.49,10.49,0,0,0,8.29-3,36.58,36.58,0,0,0,7.94-12.23c.84-2,.31-4.53.45-6.81.05-.71-.45-2,.83-1.87,1.06.08,2.73-1.13,3.18,1.07a24.46,24.46,0,0,0,1,3.08,15.9,15.9,0,0,0,1.25,3.47c1.85,2.9,4.22,3,6.88.72a81.85,81.85,0,0,1,9.08-7,9.06,9.06,0,0,1,9.94-.29c1.54.95,2.45.91,3.74-.08,1.81-1.39,4-1,6.07-1a1.31,1.31,0,0,1,1,.75,1.6,1.6,0,0,1-.53,1.2,68.88,68.88,0,0,0-10.41,13.63c-1,1.93-2,3.82-2.87,5.8a2.53,2.53,0,0,0,.23,2.25,2.38,2.38,0,0,0,2.24.12,31.88,31.88,0,0,0,5.87-3.87c3.82-3.46,7.29-7.25,9.55-12,.86-1.81,1.94-3.53,3-5.26,1.44-2.39,4.52-3.11,8.07-2.1a48.4,48.4,0,0,0,6.4,1.41c1.8.25,3.67.27,4.78-1.71.24-.42.66-1,1.05-1a26.69,26.69,0,0,1,3.35-.06c-.37.92-.49,2.12-1.15,2.72-3.12,2.79-6.34,5.48-9.63,8.08-3.11,2.46-6.4,4.7-9.5,7.17-2.07,1.65-1.89,2.57.58,3.81a23,23,0,0,0,4.68,2,4.47,4.47,0,0,0,4.41-1.39,69.56,69.56,0,0,0,10-12.35c2.53-3.87,5.59-7.08,10.55-8.55,3.67-1.09,6.43,0,9.53,1,.51.17,1.55.19,1.64,0,1.58-3.64,4.6-.72,6.77-1.54.14.44.54,1,.38,1.3a57.65,57.65,0,0,1-3.43,5.56c-3.24,4.43-6.86,8.6-8.82,13.83-.17.43-.56.79-.68,1.22-.42,1.43.45,2.47,1.76,1.94a12.12,12.12,0,0,0,4-2.32c4.35-4.29,9-8.29,11.49-14.2.86-2,2.62-3.86,3.78-5.92a2.94,2.94,0,0,1,3.36-1.5,18,18,0,0,1,4.8,2.71c.72.58,1.53.61,1.76-.59a2.38,2.38,0,0,1,2.78-2.1l4.91.19c-.73,1.28-1.48,2.54-2.2,3.83-.38.67-.66,1.4-1.08,2a2.3,2.3,0,0,0,.59,3.41c1.29,1.06,2.39.72,3.41-.4,2.94-3.22,6.57-5.4,10.35-7.55,2.31-1.31,4.48-1.43,6.88-1.56,1.22-.07,2.09.62,3.11.93s1.25.66,1.26,1.62c0,3.47-1.09,6-4.53,7.6s-6.52,3.58-10.39,3.91a5,5,0,0,0-4.07,4.33,19.37,19.37,0,0,0,0,3.49,2.24,2.24,0,0,0,2.24,2.12,12.3,12.3,0,0,0,9.23-3,48.19,48.19,0,0,0,12.54-15.18,21.3,21.3,0,0,1,3.72-4.93c1.71-1.67,4.11-1.18,6-.44a5.36,5.36,0,0,0,4.5,0,10.33,10.33,0,0,1,5.3-.31c2.9.53,4,4,2.77,7.11-1.57,3.81-4.21,6.93-6.39,10.34-1.27,2-2.64,3.9-3.86,5.9-.5.82.17,1.58,1.21,1.51.33,0,.75.12,1,0,2.12-1.33,4.45-2.44,6.27-4.11a60,60,0,0,0,9.92-10.84c.67-1,.91-2.33,1.6-3.32.5-.72,1.55-1.7,2.15-1.58,1.65.35.56,1.9.75,2.91.07.34-.35.87-.67,1.18-3.91,3.83-6.48,8.71-10,12.81-2.19,2.56-5.09,4.75-8.87,5a5.5,5.5,0,0,0-1.68.74,4.81,4.81,0,0,1-5.3-1.07,5.43,5.43,0,0,1-1.33-5.29,26.14,26.14,0,0,1,6.7-11.72,23.28,23.28,0,0,0,3.13-4.2,2.69,2.69,0,0,0-.36-2.26,2,2,0,0,0-1.83-.15,63.64,63.64,0,0,0-7,4.81,21.94,21.94,0,0,0-3.16,4.06c-1.15,1.54-2.83,2.51-3.72,4.44-.75,1.63-2.1,3.06-2.91,4.8a35.28,35.28,0,0,1-3,4.76c-.29.43-.79,1-1.23,1-1.83.11-3.8-.38-5.46.16-1.88.6-.37-2.92-2.4-1.56a10,10,0,0,1-3,1.08c-1.21.31-2.65.17-3.66.78-3,1.81-5.12-.71-7.38-1.58-1.62-.62-2-3-1.79-5,.26-2.2-.8-4.6.94-6.62.07-.08-.7-1.21-1-1.17-3.1.56-4.7-1.78-5.82-3.72-.86-1.48-1-1.7-2.28-.74-3.39,2.55-6.94,4.91-9.39,8.45a84.57,84.57,0,0,0-5.39,8.75c-.48.91-.75,1.25-1.66,1.19-2.46-.19-4.93-.51-7.39-.51s-4.85.36-7.27.47c-.58,0-1.68-.31-1.68-.5,0-1.41-.94-2.41-2-2.34s-1.72,1.37-2.7,1.84a20,20,0,0,1-5.16,2A6.28,6.28,0,0,1,341,123c-1.13-1.83-2-1.37-3-.75-2.54,1.63-5.36,2.34-8.2,3.18-1.87.55-3.32.64-4.81-.88-2.31-2.36-5.42-1.87-8.25-1.59-1.06.1-2,1.55-2.95,2.43-.79.73-1.36.47-2.08-.15s-.83-1.12,0-1.8c3.87-3.15,7.42-6.79,11.63-9.38,3.55-2.17,6.18-5.46,10-7.25,1.12-.53.7-2.29-.56-3a12.81,12.81,0,0,0-2.09-1c-1.33-.4-2.82-1.14-4-.86-.91.21-1.46,1.83-2.23,2.78-3.6,4.48-7.2,9-10.72,13.5a22,22,0,0,1-8,5.94c-2.05,1-4.8.56-7.24.51-.55,0-1.4-1-1.56-1.69-.53-2.24-1.88-1.34-2.93-.8-1.79.93-3.35,2.45-5.23,3a9.58,9.58,0,0,1-5.63.13c-2.28-.8-2.76-3.54-3.09-5.56-.26-1.63,1.08-3.47,1.53-5.26a9.32,9.32,0,0,0,.14-3.33c0-.31-1.24-.33-1.59-.75-1.21-1.4-2-.54-2.79.39-1.22,1.47-2.34,3-3.55,4.51a29.91,29.91,0,0,1-10.9,8.45,26.2,26.2,0,0,1-6.71,1.85c-3.16.67-5.81-1.78-6.28-5.14-.3-2.13-.57-2.26-2.23-1-1.41,1-2.75,2.18-4.19,3.16-3.87,2.64-8.31,2.15-12.63,2-1.12,0-1.82-1-2-2.36a1.7,1.7,0,0,0-2.59-1.4,21,21,0,0,0-3.46,2.49,8.13,8.13,0,0,1-6,2.22c-2.12-.06-4.4-.7-5-3.45-.06-.26-1.21-.53-1.74-.38a6.9,6.9,0,0,0-2.91,1.34c-2,1.91-4.47,1.52-6.86,1.61-1.6.06-2.86-.25-3.34-2s-2-1.24-2.66-.65a11.59,11.59,0,0,1-6.87,2.87c-3.48.48-4.61.41-6.45-2.32-.36-.53-.78-1-1.16-1.52-.73-1-1.29-1-2.58-.44a84,84,0,0,1-8,3.62c-1.59.55-3.79-.57-4.87,1.48-3.19.33-6.38.68-9.58,1-.66.07-1.6.29-1.94,0-.87-.83-2.91-.39-2.76-2a2.22,2.22,0,0,1,2.89-1.9,8.55,8.55,0,0,0,7.45-2.3,22,22,0,0,0,4.35-5.08,114.31,114.31,0,0,0,9.11-19.68c.88-2.7,2.68-4.89,3.33-7.62a5.68,5.68,0,0,1,.5-1.06c-.47-.08-1-.34-1.4-.19a8.77,8.77,0,0,0-4.44,3c-2.88,4-5.22,8.21-8,12.2-2.9,4.23-6.41,8-9.71,12-2.07,2.49-4.11,5-6.38,7.33a64.11,64.11,0,0,1-5.94,5,1.07,1.07,0,0,1-1-.24,5.71,5.71,0,0,1-.8-2.63,9.77,9.77,0,0,1,1.23-3.46c3.66-6.7,5.4-14.09,7.7-21.28.94-2.94,2-5.83,3-8.76.08-.24-.06-.77-.24-.85-.4-.18-1.13-.36-1.3-.17a70.82,70.82,0,0,0-5.4,6.74c-3.23,4.94-6.18,10-9.15,15.16a33.75,33.75,0,0,1-12,12.42,15.45,15.45,0,0,1-6.09,2.09c-5.75.52-11.6,1.47-17.11-1.37A17,17,0,0,1,92,113.22c-1.75-6-3.4-11.92-3-18.23.12-2,0-4,0-6,0-2.3-.55-5,.43-6.79,1.08-2-.57-4.32,1.49-6,.48-.39.07-1.91.07-2.9s-.4-2.32.09-2.94c2.42-3.1.11-5.93-.76-8.46-1.3-3.82-3.79-7.21-8.18-8.41C76.87,52.09,72.05,52.42,69,58.11c-1.6,2.94-1.35,5.91-.37,8.83,2.4,7.2,4,14.62,6.36,21.83a6.61,6.61,0,0,1,0,2c0,7.66.06,15.32,0,23a14.93,14.93,0,0,1-1,5.07C70.06,128.94,63.12,136,52.72,139.52a18.58,18.58,0,0,1-2.39.27c-2.89.59-3.43,1.64-4.43,4.58a12.6,12.6,0,0,0,0,8.73c.62,1.79.09,4,.12,6,0,1.41,1.72,2.53,2.49,1.57,2.5-3.12,5.88-2,8.74-1.71a14.43,14.43,0,0,1,7.61,3.21c1.14,1,1.06,2.05-.21,2.43a76,76,0,0,1-8.1,2.14,68.53,68.53,0,0,1-8.58,1c-2.82.16-5.66,0-8.49,0-5.16,0-10.33,0-15.49,0-3,0-11.88-2.53-14.34-4-.79-.47-.93-1.68-.13-1.94a84.67,84.67,0,0,1,9.74-3,8,8,0,0,1,7.91,2.54c.66.72,1.7.72,1.8-.39.45-4.85.78-9.71,1-14.56.14-2.75-.79-4.82-3.69-5.92a85.61,85.61,0,0,1-10.51-4.76c-5.51-3-10.65-6.51-13-12.73C1.39,119.51,0,116,0,112.15c0-6,0-12,0-18a56.74,56.74,0,0,1,2.35-14c.85-3.12,1.5-6.32,2.5-9.42.87-2.71,2.63-4.9,3.45-7.58A2.3,2.3,0,0,1,10.23,62c1.46.23.86,1.66.72,2.42-.51,2.59-.84,5.36-2,7.62C7.15,75.3,7,78.91,6.1,82.34a73.32,73.32,0,0,0-2.18,19.12,36.65,36.65,0,0,0,5.15,18.36c2.28,4,6.17,6.26,10.37,8a14.78,14.78,0,0,0,6.09,1C29.7,128.75,33.86,128.8,38,128.8Zm264.83-24.33c0-.54,0-.88,0-1.21,0-2.29-1.17-3.25-3.32-2.36a23.66,23.66,0,0,0-4.76,2.95c-5.41,3.9-8.34,9.08-7.9,15.9.09,1.32,1,1.5,2.42,1.19a10.32,10.32,0,0,0,5.5-3.58c1.93-2.18,3.69-4.49,5.68-6.6C302.23,108.89,303.2,106.84,302.86,104.47ZM186.79,117.38a17.12,17.12,0,0,0,.43,3.16c.16.47,1,1.13,1.34,1a9.66,9.66,0,0,0,3.4-1.37,28.91,28.91,0,0,0,10.55-14.45c.53-1.61.87-3.08-.57-4.42-1.68-1.54-2.93.29-4.36.55-.54.1-1,.85-1.47,1.23a22.77,22.77,0,0,0-3.07,2.16c-1,1-1.55,2.4-2.53,3.4C188.05,111.21,187.49,114.43,186.79,117.38Zm160-.57c0,5.23.45,5.49,4.87,3a12.56,12.56,0,0,0,2.29-1.67,60.42,60.42,0,0,0,7.22-8.87c1.59-2.2,1.63-4.14,1.57-6.34a2.49,2.49,0,0,0-3.63-1.87,39.09,39.09,0,0,0-10.22,9.59C347.69,112.45,346.12,114.57,346.84,116.81Zm61.65-7.89c3.52-1.73,7.27-2.87,8.66-6.93.11-.34.17-.7.26-1a3.92,3.92,0,0,0-1-.09c-2.38.31-8.14,5-8.61,7.06C407.79,108.19,408.27,108.59,408.49,108.92Z"/><path d="M35,89.85a17.22,17.22,0,0,1,0,2.48c-.32,1.49,1.05,3.54-.8,4.4-1.14.53-2.68-.29-4.07-.71-2-.63-4.27-.25-6.28-1.75-5-3.75-6.36-6.56-8-13.11-1-3.93-.44-7.73-.85-11.57-.15-1.36.8-2.46.9-3.58.27-3,.72-6.18-1.86-8.64-.17-.16,0-.64,0-1,.35,0,.86-.11,1,.08a6.87,6.87,0,0,1,2.09,3.12,10,10,0,0,0,5,6.48,21.41,21.41,0,0,1,8.29,8.72c.82,1.66,1.69,3.29,2.56,4.92A17,17,0,0,1,35,89.85Z"/><path d="M40,92.23a33.79,33.79,0,0,1,3.08-14c1.22-2.51,2.17-5.16,4.2-7.25A21.45,21.45,0,0,1,52.6,66.9c2.15-1.16,4.1-2.28,4.47-5.13.19-1.45,1.24-2.79,1.92-4.16a4.28,4.28,0,0,1,.55-.66c.15.27.46.57.42.81-.34,1.86.56,3.74-.8,5.68-.78,1.13-.44,3.27-.13,4.86,1.21,6.17.85,6.11.14,12.16a32.53,32.53,0,0,1-2.36,8c-1,2.5-3,4.25-5,5.87a6.54,6.54,0,0,1-4.35,1.55c-1.88,0-3.9-.73-5.74.55-.22.15-1.55-.63-1.63-1.1A14.62,14.62,0,0,1,40,92.23Z"/><path d="M64,98.29c.24,4.27-.76,8.79-2.07,13.18-1.38,4.64-4.12,8.6-9.1,9.9a16.22,16.22,0,0,1-10-.23c-.87-.33-2.18-.21-2.59-.78s-.18-1.89-.23-2.87c-.21-4.7,2.38-8.29,4.79-11.94,3-1.21,5-4.15,8.47-4.82,2-.4,3.87-1.84,5.74-2.91A4,4,0,0,0,61,94a23,23,0,0,1,.07-4.47c.16-.89,1-1.66,1.58-2.49.12.78.18,1.58.35,2.35.3,1.36.8,2.69,1,4.06A48.48,48.48,0,0,1,64,98.29Z"/><path d="M28,121.81c-4.46.12-8.77-.67-11.64-4.32a21.39,21.39,0,0,1-4.48-10.14A101.93,101.93,0,0,1,11,92.77a8.92,8.92,0,0,1,0-2.48,27.78,27.78,0,0,1,1.42-3.4A3.12,3.12,0,0,1,14,90.18c-.81,4.44,1.15,7.13,5,9.39,3.64,2.12,7.36,4.21,10.57,7.17,3.88,3.58,5.44,6,5.38,11.24,0,2.39-1.15,3.63-3.54,3.81C30.3,121.88,29.13,121.81,28,121.81Z"/><path d="M44,26c.39,5.85-2.13,11-5.48,15.9-1,1.49-3.09,1.32-3.37-.42-.62-3.88-3.72-7-3.14-11.2-2.38-5.09-.1-9.88,1-14.73A5.3,5.3,0,0,1,34,13c2.28-2.21,2-5,2-7.7,0-1.33,0-2.66,0-4A4.68,4.68,0,0,1,36.47,0a5.33,5.33,0,0,1,1.67.68A3.21,3.21,0,0,1,39,2.31a9.43,9.43,0,0,1,0,2c0,1.83-.09,3.67,0,5.49s2.9,2.43,2,4.66C44,20.52,44,20.52,44,26Z"/><path d="M40,59.23C39.7,52,42.45,46,47.49,40.87c3.78-3.85,7.31-7.94,11-11.9.44-.47.81-1.53,1.79-.33.75.91,1.08,1.54.09,2.45s-2.16,2.08-3.18,3.17C55.77,35.74,53.45,37,56,39.42c-.4,2.35.92,4.94-1,7.07.83,3.81-1.83,6.56-3,9.72-1.54,4-4.45,7-7.64,9.78a3.36,3.36,0,0,1-2.58.8A2.33,2.33,0,0,1,40,64.22C40.1,62.57,40,60.89,40,59.23Z"/><path d="M20,45.22c0-2.16-.12-3.5,0-4.81a7.84,7.84,0,0,0-2.84-6.81,30.19,30.19,0,0,1-2.45-2.48A6.81,6.81,0,0,1,14,29.45,20.45,20.45,0,0,1,16.28,29c.24,0,.55.3.77.52,5.29,5.41,11.24,10.29,14.44,17.43,1.19,2.65,2.83,5.24,3.37,8,.59,3,.21,6.28.11,9.44-.06,2.16-1.28,2.65-3.44,1.56-.4-.21-1-.11-1.32-.39A45.94,45.94,0,0,1,23,56.62C20.45,52.85,19.33,48.87,20,45.22Z"/></g></g></svg>