<svg xmlns="http://www.w3.org/2000/svg" viewBox="0 0 199.13 240.47"><g id="Layer_2" data-name="Layer 2"><g id="Layer_1-2" data-name="Layer 1"><path d="M198.21,58.65c.51,5.95-1.31,11.69-1.14,17.59.05,1.52-.62,3.06-.94,4.59-.35,1.69-.68,3.39-1,5.08s.18,3-.82,4.69c-.85,1.42-.8,3.68-1,5.5-.53,4.58-2,8.86-3.2,13.23a143.77,143.77,0,0,1-4.89,15.47c-1.74,4.44-3.05,9.06-5.1,13.38-3.16,6.7-6.33,13.39-9.69,20a133.79,133.79,0,0,1-9.71,16c-1.87,2.65-3.7,5.42-5.51,8.16-1.91,2.92-4.14,5.65-6.32,8.39a226.92,226.92,0,0,1-19.07,21.11,132.87,132.87,0,0,1-12.58,10.63c-2.18,1.65-4.2,3.57-6.24,5.37-4.09,3.63-8.89,6.23-13,9.75a35.09,35.09,0,0,1-4.79,2.87,37.2,37.2,0,0,0,.9-5.5,22,22,0,0,1,1-5.6c.44-1.66.12-3.35.89-5.14s.12-4.35,1.07-6.56c.79-1.83.57-4.07,1.14-6,1.48-5.08,2.43-10.29,3.76-15.41,1.21-4.67,2.92-9.15,4.23-13.78,2.1-7.42,5.16-14.52,8-21.68,2.56-6.47,6-12.51,9.3-18.64,3.9-7.33,8.69-14.08,13.19-21,2-3.1,5.15-5.46,7.27-8.52,3.33-4.79,7.82-8.42,11.75-12.6,1.66-1.77,3.25-3.61,5.56-4.66A4.14,4.14,0,0,0,163,93.19a57.44,57.44,0,0,0-12.69,5.26c-3.4,2-6.53,4.37-9.8,6.55-1.69,1.13-3.52,2.07-5.11,3.32A155.3,155.3,0,0,0,116,126.76c-7.09,7.9-12.81,16.92-18.74,25.71-2.49,3.69-3.94,8.05-6.21,11.9-2.77,4.67-5,9.59-7.37,14.45-2.87,5.82-5,11.94-7.52,17.89-1.8,4.25-3,8.76-4.42,13.16-.29.89-.35,1.85-.67,2.73a25.23,25.23,0,0,1-1.38,2.76c-1.9-4.73.53-8.91.49-13.22a66.12,66.12,0,0,1,1-13.56c.84-4.16,1.19-8.41,2.3-12.51s2.35-8.08,3.13-12.19c.82-4.31,2.52-8.32,3.69-12.5,1.11-4,3.07-7.72,4.48-11.63a100.7,100.7,0,0,1,5.3-11.8c1.9-3.72,4.08-7.3,5.95-11s4.43-7.15,6.59-10.74c2.3-3.79,5.36-7.19,8.19-10.69,2.6-3.2,5.22-6.43,7.92-9.55a108.72,108.72,0,0,1,9.53-9.55c3.19-2.87,6.68-5.42,10-8.11l10-8a10.16,10.16,0,0,1,1-.51c.51-.43.13-.08,0,0-.44.24.38-.34,0,0,.65-.1.15.1,0,0a64.15,64.15,0,0,0-9.76,2.45c-6.55,2.48-16.35,8.06-22.05,12-7.67,5.25-14.4,11.54-21.07,18-9.32,9-16.53,19.64-24,30.12-2.77,3.89-15.18,27.05-16.94,32-2.76,7.69-6.5,15-8.74,22.85-.94,3.28-3.35,6.13-3.32,9.86a13.44,13.44,0,0,1-.31-2c0-3.83-.13-7.67,0-11.5a68.36,68.36,0,0,1,1-7.08c.35-2.36,0-5,1-7.09a42.28,42.28,0,0,1,1-7.58,158,158,0,0,1,4.16-18.28,64.07,64.07,0,0,1,4.8-13c.43-.81.44-1.82.81-2.67,1.61-3.66,3.28-7.3,4.93-10.95,2.4-5.27,5.86-9.91,8.83-14.84,5.81-9.63,14.08-17.1,22-24.89,1.68-1.65,3.75-2.91,5.43-4.7C87.71,65.15,79.26,69.75,71.13,75c-6,3.88-11.2,8.61-21.8,19.23-7,7.07-12.21,15.43-17.15,23.93a137.45,137.45,0,0,0-11.63,27.2c-1.23-2.61-2.51-4.86-3.38-7.26C15.7,134,14.13,130,12.69,126c-1.29-3.63-2.28-7.37-3.5-11-1-3.09-1.48-6.38-2.25-9.57-.55-2.26-1.51-4.47-1.73-6.75S3.68,94.39,4,92c.21-1.45-.67-3-.87-4.58a28.33,28.33,0,0,0-.86-4.13,43,43,0,0,1-1-7.55A231.92,231.92,0,0,1,.14,43.66c.06-1.74.93-2.53,2.71-2.65.66,0,1.33,0,2,0h193"/><path d="M.23,34.84V.15H34.76l4.36,4.36L43.61,0H148q23.49,0,47,0c3.79,0,4.1.27,4.11,3.75,0,10.31,0,20.61,0,31.08ZM151,18.11A7.42,7.42,0,0,0,148.64,11a11.74,11.74,0,0,0-7.2-2.89c-4.26-.28-9.36,5.33-9.25,9.75a11,11,0,0,0,3,6.66c1.64,1.95,3.87,2.41,6.42,2.55a10,10,0,0,0,7.28-2.72C150.4,23,152.13,20.67,151,18.11ZM18.31,15.34l8.54,10.51h4V9.17H27.13c0,2,0,3.79,0,5.6S27,18.26,27,20.18L18.49,9.25h-4.2V26l4-.21ZM99.22,26c3.27,0,6.09.05,8.91,0a3.59,3.59,0,0,0,2.17-.7c2.1-1.94,2.49-5.42.38-7-1.25-.93-1.68-.75-.94-2.58,1.62-4-.49-6.64-4.68-6.68-1.94,0-3.89,0-5.84,0Zm25.65-6.24a20.91,20.91,0,0,0,1.69-1.71,5.84,5.84,0,0,0,1.49-2.34c.21-1.43.42-3.18-.22-4.33A5.21,5.21,0,0,0,122.94,9c-2.27,0-4.53,0-6.69,0V25.78H120c.31-2-.28-3.94.58-6.1l4,6.16h4.75Zm47.36,6.07h4.1V18.52l5.91,7.28h5l-7-8.54c2.12-2.37,4.38-4.9,6.62-7.46.1-.12,0-.46-.06-.68h-4.45L176,16.78V9.15h-3.8Zm-98.14-.25c1.21.42,2.22.8,3.25,1.12,2.64.82,4.92.07,7.13-1.49s1.56-3.75,1.66-5.82-1.57-2.16-2.84-2.72c-.57-.25-1.14-.47-1.72-.66-2.22-.74-2.22-.73-2.13-4,1.12.06,2.63-.31,3.26.27,1.31,1.21,1.84.06,2.12-.54A7.37,7.37,0,0,0,85,9c-2.2,0-4,0-5.85,0-2.17.06-4.65,2.55-5.05,5-.26,1.55,1.24,3.83,3.11,4.6,1.28.53,2.63.88,3.89,1.45a2,2,0,0,1,1,1.28c.14.75,0,1.22-1,1.79-1.82,1.13-3.53.14-4.56-.46-1.47-.86-1.79.14-2.15.69A5.47,5.47,0,0,0,74.09,25.58ZM51.23,11.83H56V9.21H47.26V25.77H56V23.15l-4.65-.33V18.94h4.83c0-1.09-.09-2-.13-3.05H51.23ZM168.16,9.21c-6.12-.3-8.77-.13-10.31,1.86a11.23,11.23,0,0,0-2.79,7.24c.08,2.88,1.61,4.72,3.44,6.58,2.45,2.51,5.42,2.22,8.67,2-.09-1.47-.16-2.7-.23-3.91h-4.32a24,24,0,0,0-2.5-2.45c-1.35-1-1.15-2.36-1-3.59.46-2.83,1.88-3.87,5-3.95h1.19ZM62.29,9.09V25.75H70V23.18l-4-.44V9.09Zm-25,0V26L41,25.83V9.09Z"/><path d="M147.13,17.39c0,3.32-1.91,5.42-4.85,5.65a5.89,5.89,0,0,1-4.21-1.77,6.38,6.38,0,0,1-1.76-3.67c-.28-1.69,3.9-5.78,5.73-5.5,1.29.19,2.47,1.21,3.63,2A2.93,2.93,0,0,1,147.13,17.39Z"/><path d="M103.2,23V19c1.17,0,2.37-.28,3.32.09A2.73,2.73,0,0,1,108,21.23c-.06.65-1.15,1.39-1.94,1.71A8.87,8.87,0,0,1,103.2,23Z"/><path d="M106,12.17v3.67h-2.76c0-1-.11-2.27-.18-3.67Z"/><path d="M120.29,12.2c3,.1,3.84.62,3.84,2.28s-.79,2.2-3.84,2.36Z"/></g></g></svg>