<svg xmlns="http://www.w3.org/2000/svg" viewBox="0 0 85.6 24"><g id="Layer_2" data-name="Layer 2"><g id="Layer_1-2" data-name="Layer 1"><path d="M68.61,24l-2.07-.51c-4.08-1-6.21-3.81-6.2-8.1s2.15-7.22,6.3-8.13a24.2,24.2,0,0,1,4.74-.48c4.74-.07,9.48,0,14.22-.06V9.84c-4.7,0-9.4-.06-14.1,0a2.78,2.78,0,0,0-3,3.06c0,1.71,0,3.43,0,5.15a2.62,2.62,0,0,0,2.7,2.88c4.78.05,9.56,0,14.34,0V24Z"/><path d="M31,24V9.92h7.48v3.75h15.4v3H38.67v4.23H54V24Z"/><path d="M10.21,24c0-2,.09-4.06.11-6.1,0-2.63,0-5.26,0-8.07H0v-3H28.22V9.79H17.87V24Z"/><path d="M54,0V3H45.1L44.91,0Z"/><path d="M53.94,6.84V9.7H38.71V6.84Z"/></g></g></svg>